<svg width="20" height="20" viewBox="0 0 20 20" fill="none" xmlns="http://www.w3.org/2000/svg">
<path d="M9.99998 20C8.48804 20.0043 6.9952 19.6622 5.63598 19C5.13853 18.758 4.66191 18.4754 4.21098 18.155L4.07398 18.055C2.8338 17.1396 1.81985 15.9522 1.10998 14.584C0.375714 13.1679 -0.00511478 11.5952 -7.26474e-05 10C-7.26474e-05 4.47715 4.47713 0 9.99998 0C15.5228 0 20 4.47715 20 10C20.005 11.5944 19.6245 13.1664 18.891 14.582C18.1821 15.9494 17.1696 17.1364 15.931 18.052C15.4637 18.394 14.9679 18.6951 14.449 18.952L14.369 18.992C13.0089 19.6577 11.5142 20.0026 9.99998 20ZM9.99998 15C8.50145 14.9971 7.12764 15.834 6.44298 17.167C8.68437 18.2772 11.3156 18.2772 13.557 17.167V17.162C12.8715 15.8305 11.4976 14.9954 9.99998 15ZM9.99998 13C12.1661 13.0028 14.1634 14.1701 15.229 16.056L15.244 16.043L15.258 16.031L15.241 16.046L15.231 16.054C17.76 13.8691 18.6643 10.3423 17.4986 7.21011C16.333 4.07788 13.3431 2.00032 10.001 2.00032C6.65889 2.00032 3.66897 4.07788 2.50333 7.21011C1.33769 10.3423 2.24198 13.8691 4.77098 16.054C5.83724 14.169 7.83434 13.0026 9.99998 13ZM9.99998 12C7.79084 12 5.99998 10.2091 5.99998 8C5.99998 5.79086 7.79084 4 9.99998 4C12.2091 4 14 5.79086 14 8C14 9.06087 13.5786 10.0783 12.8284 10.8284C12.0783 11.5786 11.0608 12 9.99998 12ZM9.99998 6C8.89541 6 7.99998 6.89543 7.99998 8C7.99998 9.10457 8.89541 10 9.99998 10C11.1045 10 12 9.10457 12 8C12 6.89543 11.1045 6 9.99998 6Z" fill="white"/>
</svg>
