<svg width="33" height="24" viewBox="0 0 33 24" fill="none" xmlns="http://www.w3.org/2000/svg">
<path fill-rule="evenodd" clip-rule="evenodd" d="M20.8398 21.5446C21.3684 22.2188 22.0293 22.7805 22.7828 23.1963C23.5364 23.612 24.3671 23.8731 25.2252 23.9639C26.0833 24.0548 26.9512 23.9735 27.7767 23.725C28.6023 23.4765 29.3686 23.0659 30.0297 22.5177C30.6909 21.9695 31.2332 21.2951 31.6242 20.5348C32.0152 19.7746 32.2469 18.9441 32.3054 18.0933C32.3638 17.2424 32.2479 16.3886 31.9644 15.5831C31.681 14.7776 31.2359 14.037 30.6558 13.4055L21.3138 2.40353C20.2255 1.07076 18.6461 0.219506 16.923 0.0368664C15.1998 -0.145773 13.4737 0.355144 12.1241 1.42953C10.8187 2.55619 10.0194 4.14894 9.902 5.8577C9.78456 7.56646 10.3585 9.25137 11.4978 10.5421L20.8398 21.5446ZM27.6942 19.7673C27.0808 20.2557 26.2962 20.4835 25.513 20.4005C24.7297 20.3175 24.0118 19.9306 23.5171 19.3248L14.1751 8.32515C13.6573 7.73847 13.3964 6.97266 13.4498 6.19601C13.5031 5.41935 13.8662 4.69538 14.4595 4.18318C15.0729 3.69473 15.8576 3.46696 16.6409 3.54993C17.4243 3.63289 18.1423 4.01981 18.6371 4.62565L27.9791 15.623C28.2359 15.9135 28.4323 16.2512 28.557 16.6167C28.6817 16.9823 28.7322 17.3685 28.7058 17.7534C28.6794 18.1382 28.5765 18.5142 28.4031 18.8597C28.2296 19.2053 27.9889 19.5137 27.6947 19.7673H27.6942Z" fill="white"/>
<path fill-rule="evenodd" clip-rule="evenodd" d="M11.4274 21.5446C10.339 22.8776 8.75959 23.7289 7.03626 23.9116C5.31293 24.0942 3.58672 23.5932 2.23708 22.5186C0.931603 21.3919 0.132342 19.799 0.0150091 18.0901C-0.102324 16.3812 0.471874 14.6962 1.61137 13.4055L10.9534 2.40353C12.0417 1.07076 13.621 0.219506 15.3442 0.0368664C17.0674 -0.145773 18.7935 0.355144 20.1431 1.42953C21.4485 2.55619 22.2478 4.14894 22.3652 5.8577C22.4826 7.56646 21.9086 9.25137 20.7694 10.5421L11.4274 21.5446ZM4.57303 19.7673C5.18642 20.2557 5.97097 20.4835 6.75423 20.4005C7.5375 20.3175 8.25537 19.9306 8.75006 19.3248L18.0909 8.32515C18.6087 7.73847 18.8696 6.97266 18.8163 6.19601C18.7629 5.41935 18.3998 4.69538 17.8066 4.18318C17.1931 3.69491 16.4086 3.46725 15.6254 3.55021C14.8422 3.63318 14.1243 4.01998 13.6296 4.62565L4.28809 15.623C4.03132 15.9136 3.83501 16.2513 3.71036 16.6168C3.58571 16.9824 3.53518 17.3686 3.56164 17.7535C3.5881 18.1384 3.69104 18.5143 3.86458 18.8598C4.03812 19.2054 4.27885 19.5137 4.57303 19.7673Z" fill="white"/>
</svg>
