<svg width="24" height="24" viewBox="0 0 24 24" fill="none" xmlns="http://www.w3.org/2000/svg">
<path d="M6.49998 21.001H20.4706C20.763 21.001 21.0001 20.7639 21.0001 20.4716L21 14.5304M7.98045 20.6723L20.6421 14.7681C20.9071 14.6445 21.0217 14.3294 20.8981 14.0644L18.3872 8.67993C18.2636 8.41494 17.9486 8.3003 17.6836 8.42387L12.0303 11.06M9.88181 18.4059C9.38151 20.273 7.46233 21.381 5.5952 20.8808C3.72807 20.3805 2.61982 18.4612 3.12011 16.5941L6.73596 3.09961C6.81163 2.81718 7.1018 2.64952 7.38422 2.7252L13.123 4.26291C13.4054 4.33858 13.5731 4.62891 13.4974 4.91133L9.88181 18.4059ZM6.49998 17.6009H6.50198L6.50194 17.6029L6.49998 17.6029V17.6009Z" stroke="#F7F7F7" stroke-width="2" stroke-linecap="round" stroke-linejoin="round"/>
</svg>
