<svg width="19" height="25" viewBox="0 0 19 25" fill="none" xmlns="http://www.w3.org/2000/svg">
<path d="M9.50087 5.7915H5.72309C3.63668 5.7915 1.94531 7.50775 1.94531 9.62484V19.2082C1.94531 21.3253 3.63668 23.0415 5.72309 23.0415H9.50087C11.5873 23.0415 13.2786 21.3253 13.2786 19.2082V9.62484C13.2786 7.50775 11.5873 5.7915 9.50087 5.7915Z" stroke="#13A3FD" stroke-width="2"/>
<path d="M14.2216 1H10.4438C8.35738 1 6.66602 2.71624 6.66602 4.83333V14.4167C6.66602 16.5338 8.35738 18.25 10.4438 18.25H14.2216C16.308 18.25 17.9993 16.5338 17.9993 14.4167V4.83333C17.9993 2.71624 16.308 1 14.2216 1Z" fill="#191919" stroke="#13A3FD" stroke-width="2"/>
</svg>
