<svg width="24" height="24" viewBox="0 0 24 24" fill="none" xmlns="http://www.w3.org/2000/svg">
<path d="M15 15H17.8C18.9201 15 19.48 15 19.9078 14.782C20.2841 14.5902 20.5905 14.2844 20.7822 13.908C21.0002 13.4802 21.0002 12.9202 21.0002 11.8V6.20002C21.0002 5.07992 21.0002 4.51986 20.7822 4.09204C20.5905 3.71572 20.2841 3.40973 19.9078 3.21799C19.48 3 18.9203 3 17.8002 3H12.2002C11.0801 3 10.5196 3 10.0918 3.21799C9.71547 3.40973 9.40973 3.71572 9.21799 4.09204C9 4.51986 9 5.07997 9 6.20007V9.00007M3 17.8001V12.2001C3 11.08 3 10.5199 3.21799 10.092C3.40973 9.71572 3.71547 9.40973 4.0918 9.21799C4.51962 9 5.08009 9 6.2002 9H11.8002C12.9203 9 13.48 9 13.9078 9.21799C14.2841 9.40973 14.5905 9.71572 14.7822 10.092C15.0002 10.5199 15.0002 11.0799 15.0002 12.2V17.8C15.0002 18.9202 15.0002 19.4802 14.7822 19.908C14.5905 20.2844 14.2841 20.5902 13.9078 20.782C13.48 21 12.9203 21 11.8002 21H6.2002C5.08009 21 4.51962 21 4.0918 20.782C3.71547 20.5902 3.40973 20.2844 3.21799 19.908C3 19.4802 3 18.9202 3 17.8001Z" stroke="white" stroke-width="2" stroke-linecap="round" stroke-linejoin="round"/>
</svg>
