<svg width="24" height="24" viewBox="0 0 24 24" fill="none" xmlns="http://www.w3.org/2000/svg">
<path d="M15 14C14.4477 14 14 14.4477 14 15C14 15.5523 14.4477 16 15 16V14ZM17.8 15V14V15ZM8 9.00007C8 9.55236 8.44772 10.0001 9 10.0001C9.55228 10.0001 10 9.55236 10 9.00007H8ZM10.0918 3.21799L9.63781 2.32698V2.32698L10.0918 3.21799ZM9.21799 4.09204L10.109 4.54603V4.54603L9.21799 4.09204ZM21.0002 6.20002H20.0002H21.0002ZM20.7822 4.09204L19.8912 4.54603L20.7822 4.09204ZM19.9078 3.21799L20.3618 2.32698L19.9078 3.21799ZM19.9078 14.782L20.3618 15.673L19.9078 14.782ZM21.0002 11.8H22.0002H21.0002ZM20.7822 13.908L21.6732 14.362L20.7822 13.908ZM11.8002 21V20V21ZM6.2002 21V22V21ZM15.0002 17.8H16.0002H15.0002ZM14.7822 19.908L15.6732 20.362L14.7822 19.908ZM13.9078 20.782L14.3618 21.673L13.9078 20.782ZM13.9078 9.21799L14.3618 8.32698L13.9078 9.21799ZM15.0002 12.2H14.0002H15.0002ZM14.7822 10.092L13.8912 10.546L14.7822 10.092ZM3.21799 10.092L4.10899 10.546L3.21799 10.092ZM4.0918 9.21799L3.63781 8.32698L4.0918 9.21799ZM3.21799 19.908L2.32698 20.362H2.32698L3.21799 19.908ZM4.0918 20.782L4.54579 19.891L4.0918 20.782ZM15 16H17.8V14H15V16ZM17.8002 2H12.2002V4H17.8002V2ZM8 6.20007V9.00007H10V6.20007H8ZM12.2002 2C11.6566 2 11.1887 1.99922 10.805 2.03057C10.4096 2.06286 10.0162 2.13416 9.63781 2.32698L10.5458 4.10899C10.5952 4.08383 10.6959 4.04613 10.9678 4.02393C11.2513 4.00078 11.6237 4 12.2002 4V2ZM10 6.20007C10 5.62352 10.0008 5.25123 10.0239 4.96788C10.0461 4.69619 10.0838 4.59547 10.109 4.54603L8.32698 3.63805C8.13418 4.01644 8.06287 4.40967 8.03057 4.80502C7.99922 5.1887 8 5.65652 8 6.20007H10ZM9.63781 2.32698C9.07306 2.61473 8.61447 3.07382 8.32698 3.63805L10.109 4.54603C10.205 4.35761 10.3579 4.20474 10.5458 4.10899L9.63781 2.32698ZM22.0002 6.20002C22.0002 5.65647 22.001 5.18867 21.9696 4.805C21.9373 4.40965 21.866 4.01643 21.6732 3.63805L19.8912 4.54603C19.9164 4.59547 19.9541 4.69619 19.9763 4.96786C19.9994 5.2512 20.0002 5.62347 20.0002 6.20002H22.0002ZM17.8002 4C18.3768 4 18.7489 4.00078 19.0321 4.02393C19.3036 4.04611 19.4043 4.08377 19.4538 4.10899L20.3618 2.32698C19.9835 2.13421 19.5904 2.06288 19.1951 2.03057C18.8115 1.99922 18.3437 2 17.8002 2V4ZM21.6732 3.63805C21.3854 3.07316 20.9259 2.61439 20.3618 2.32698L19.4538 4.10899C19.6424 4.20507 19.7956 4.35828 19.8912 4.54603L21.6732 3.63805ZM17.8 16C18.3436 16 18.8113 16.0008 19.195 15.9694C19.5903 15.9371 19.9834 15.8658 20.3618 15.673L19.4538 13.891C19.4043 13.9162 19.3036 13.9539 19.032 13.9761C18.7488 13.9992 18.3765 14 17.8 14V16ZM20.0002 11.8C20.0002 12.3766 19.9994 12.7489 19.9763 13.0322C19.9541 13.3039 19.9164 13.4046 19.8912 13.454L21.6732 14.362C21.866 13.9836 21.9373 13.5904 21.9696 13.1951C22.001 12.8114 22.0002 12.3436 22.0002 11.8H20.0002ZM20.3618 15.673C20.9257 15.3856 21.3854 14.927 21.6732 14.362L19.8912 13.454C19.7956 13.6417 19.6425 13.7948 19.4538 13.891L20.3618 15.673ZM22.0002 11.8V6.20002H20.0002V11.8H22.0002ZM4 17.8001V12.2001H2V17.8001H4ZM6.2002 10H11.8002V8H6.2002V10ZM11.8002 20H6.2002V22H11.8002V20ZM14.0002 17.8C14.0002 18.3766 13.9994 18.7489 13.9763 19.0322C13.9541 19.3039 13.9164 19.4046 13.8912 19.454L15.6732 20.362C15.866 19.9836 15.9373 19.5904 15.9696 19.1951C16.001 18.8114 16.0002 18.3436 16.0002 17.8H14.0002ZM11.8002 22C12.3438 22 12.8115 22.0008 13.1951 21.9694C13.5904 21.9371 13.9835 21.8657 14.3618 21.673L13.4538 19.891C13.4043 19.9162 13.3036 19.9539 13.0321 19.9761C12.7489 19.9992 12.3767 20 11.8002 20V22ZM13.8912 19.454C13.7956 19.6417 13.6425 19.7948 13.4538 19.891L14.3618 21.673C14.9257 21.3856 15.3854 20.927 15.6732 20.362L13.8912 19.454ZM11.8002 10C12.3768 10 12.7489 10.0008 13.0321 10.0239C13.3036 10.0461 13.4043 10.0838 13.4538 10.109L14.3618 8.32698C13.9835 8.13421 13.5904 8.06288 13.1951 8.03057C12.8115 7.99922 12.3437 8 11.8002 8V10ZM16.0002 12.2C16.0002 11.6565 16.001 11.1887 15.9696 10.805C15.9373 10.4096 15.866 10.0164 15.6732 9.63805L13.8912 10.546C13.9164 10.5955 13.9541 10.6962 13.9763 10.9679C13.9994 11.2512 14.0002 11.6235 14.0002 12.2H16.0002ZM13.4538 10.109C13.6424 10.2051 13.7956 10.3583 13.8912 10.546L15.6732 9.63805C15.3854 9.07316 14.9259 8.61439 14.3618 8.32698L13.4538 10.109ZM4 12.2001C4 11.6235 4.00078 11.2512 4.02393 10.9679C4.04612 10.6962 4.0838 10.5955 4.10899 10.546L2.32698 9.63805C2.13418 10.0164 2.06287 10.4097 2.03057 10.805C1.99922 11.1887 2 11.6565 2 12.2001H4ZM6.2002 8C5.65663 8 5.18874 7.99922 4.80498 8.03057C4.40962 8.06286 4.01624 8.13416 3.63781 8.32698L4.54579 10.109C4.59517 10.0838 4.69595 10.0461 4.9678 10.0239C5.25126 10.0008 5.62365 10 6.2002 10V8ZM4.10899 10.546C4.205 10.3576 4.35788 10.2047 4.54579 10.109L3.63781 8.32698C3.07306 8.61473 2.61447 9.07382 2.32698 9.63805L4.10899 10.546ZM2 17.8001C2 18.3436 1.99922 18.8114 2.03057 19.1951C2.06287 19.5904 2.13419 19.9836 2.32698 20.362L4.10899 19.454C4.0838 19.4046 4.04612 19.3039 4.02393 19.0322C4.00078 18.7489 4 18.3766 4 17.8001H2ZM6.2002 20C5.62367 20 5.25127 19.9992 4.96782 19.9761C4.69598 19.9538 4.59519 19.9161 4.54579 19.891L3.63781 21.673C4.01623 21.8658 4.40959 21.9371 4.80496 21.9694C5.18873 22.0008 5.65662 22 6.2002 22V20ZM2.32698 20.362C2.61452 20.9264 3.07317 21.3853 3.63781 21.673L4.54579 19.891C4.35778 19.7952 4.20494 19.6424 4.10899 19.454L2.32698 20.362ZM14.0002 12.2V17.8H16.0002V12.2H14.0002Z" fill="#13A3FD"/>
</svg>
