<svg width="144" height="144" viewBox="0 0 144 144" fill="none" xmlns="http://www.w3.org/2000/svg">
<g opacity="0.01">
<path d="M143.639 72.005C143.639 111.569 111.566 143.643 72.001 143.643C32.4369 143.643 0.363281 111.569 0.363281 72.005C0.363281 32.4408 32.4369 0.367188 72.001 0.367188C111.566 0.367188 143.639 32.4408 143.639 72.005Z" fill="#B43030"/>
</g>
<path d="M129.341 72.0123C129.341 103.682 103.667 129.357 71.9967 129.357C40.3265 129.357 14.6523 103.682 14.6523 72.0123C14.6523 40.3421 40.3265 14.668 71.9967 14.668C103.667 14.668 129.341 40.3421 129.341 72.0123Z" fill="#B43030"/>
<path d="M92.7969 51.2031L51.1953 92.8047L92.7969 51.2031Z" fill="#B43030"/>
<path d="M92.7969 51.2031L51.1953 92.8047" stroke="white" stroke-width="5.74" stroke-linecap="round" stroke-linejoin="round"/>
<path d="M92.7969 92.8047L51.1953 51.2031L92.7969 92.8047Z" fill="#B43030"/>
<path d="M92.7969 92.8047L51.1953 51.2031" stroke="white" stroke-width="5.74" stroke-linecap="round" stroke-linejoin="round"/>
</svg>
