<svg width="24" height="24" viewBox="0 0 24 24" fill="none" xmlns="http://www.w3.org/2000/svg">
<path d="M10 12.25H4C3.86421 12.25 3.75 12.1358 3.75 12V4C3.75 3.86421 3.86421 3.75 4 3.75H10C10.1358 3.75 10.25 3.86421 10.25 4V12C10.25 12.1358 10.1358 12.25 10 12.25ZM10 20.25H4C3.86421 20.25 3.75 20.1358 3.75 20V16C3.75 15.8642 3.86421 15.75 4 15.75H10C10.1358 15.75 10.25 15.8642 10.25 16V20C10.25 20.1358 10.1358 20.25 10 20.25ZM20 20.25H14C13.8642 20.25 13.75 20.1358 13.75 20V12C13.75 11.8642 13.8642 11.75 14 11.75H20C20.1358 11.75 20.25 11.8642 20.25 12V20C20.25 20.1358 20.1358 20.25 20 20.25ZM13.75 8V4C13.75 3.86421 13.8642 3.75 14 3.75H20C20.1358 3.75 20.25 3.86421 20.25 4V8C20.25 8.13579 20.1358 8.25 20 8.25H14C13.8642 8.25 13.75 8.13579 13.75 8Z" stroke="#1D2A31" stroke-width="1.5"/>
</svg>
