<svg width="24" height="24" viewBox="0 0 24 24" fill="none" xmlns="http://www.w3.org/2000/svg">
<path d="M4 19.9999H3C3 20.2651 3.10536 20.5194 3.2929 20.707C3.48043 20.8945 3.73479 20.9999 4.00001 20.9999L4 19.9999ZM4 15.9999L3.29289 15.2928C3.10536 15.4803 3 15.7347 3 15.9999H4ZM14.8686 5.13122L14.1615 4.42411L14.1615 4.42411L14.8686 5.13122ZM17.1313 5.13122L16.4242 5.83833V5.83833L17.1313 5.13122ZM18.8686 6.86848L19.5757 6.16137V6.16137L18.8686 6.86848ZM18.8686 9.13122L18.1615 8.42411V8.42411L18.8686 9.13122ZM8 19.9998L8.00001 20.9998C8.26522 20.9998 8.51957 20.8945 8.70711 20.707L8 19.9998ZM19.5369 7.69088L20.4879 7.38186L19.5369 7.69088ZM19.5369 8.30883L18.5858 7.99981L19.5369 8.30883ZM15.691 4.46301L15.382 3.51195V3.51195L15.691 4.46301ZM16.3091 4.46301L16.6181 3.51195V3.51195L16.3091 4.46301ZM12.7071 7.29276C12.3166 6.90224 11.6834 6.90224 11.2929 7.29276C10.9024 7.68329 10.9024 8.31645 11.2929 8.70698L12.7071 7.29276ZM15.2929 12.707C15.6834 13.0975 16.3166 13.0975 16.7071 12.707C17.0976 12.3165 17.0976 11.6833 16.7071 11.2928L15.2929 12.707ZM5 19.9999V15.9999H3V19.9999H5ZM4.70711 16.707L15.5757 5.83832L14.1615 4.42411L3.29289 15.2928L4.70711 16.707ZM16.4242 5.83833L18.1615 7.57558L19.5757 6.16137L17.8385 4.42411L16.4242 5.83833ZM18.1615 8.42411L7.29289 19.2927L8.70711 20.707L19.5757 9.83833L18.1615 8.42411ZM7.99999 18.9998L3.99999 18.9999L4.00001 20.9999L8.00001 20.9998L7.99999 18.9998ZM18.1615 7.57558C18.3712 7.78526 18.4854 7.90055 18.5611 7.98974C18.6292 8.07002 18.6058 8.0613 18.5858 7.99989L20.4879 7.38186C20.3938 7.09212 20.2342 6.87021 20.0858 6.69538C19.9449 6.52945 19.7621 6.34771 19.5757 6.16137L18.1615 7.57558ZM19.5757 9.83833C19.7621 9.65198 19.9449 9.47024 20.0858 9.30431C20.2342 9.12947 20.3938 8.90757 20.4879 8.61785L18.5858 7.99981C18.6058 7.93842 18.6292 7.92971 18.5611 8.00997C18.4854 8.09915 18.3712 8.21444 18.1615 8.42411L19.5757 9.83833ZM18.5858 7.99989L18.5858 7.99981L20.4879 8.61785C20.6184 8.21616 20.6184 7.78354 20.4879 7.38186L18.5858 7.99989ZM15.5757 5.83833C15.7854 5.62866 15.9007 5.51448 15.9899 5.43878C16.0701 5.37066 16.0614 5.39412 16 5.41406L15.382 3.51195C15.0923 3.60608 14.8704 3.76564 14.6955 3.91407C14.5296 4.05493 14.3479 4.23776 14.1615 4.42411L15.5757 5.83833ZM17.8385 4.42411C17.6522 4.23782 17.4704 4.05498 17.3046 3.91414C17.1298 3.76571 16.9079 3.6061 16.6181 3.51195L16.0001 5.41406C15.9386 5.3941 15.9299 5.37059 16.0101 5.43871C16.0993 5.51443 16.2145 5.62861 16.4242 5.83833L17.8385 4.42411ZM16 5.41406H16.0001L16.6181 3.51195C16.2164 3.38143 15.7837 3.38143 15.382 3.51195L16 5.41406ZM11.2929 8.70698L15.2929 12.707L16.7071 11.2928L12.7071 7.29276L11.2929 8.70698Z" fill="#13A3FD"/>
</svg>
