
<svg width="20" height="20" viewBox="0 0 20 20" fill="none" xmlns="http://www.w3.org/2000/svg">
<path d="M2.34998 3.70012C2.34998 1.90012 3.55598 1.00012 5.04998 1.00012H12.25C13.744 1.00012 14.95 1.90012 14.95 3.70012V19.0001H2.34998V7.30012" stroke="#F7F7F7" stroke-width="2" stroke-linecap="round" stroke-linejoin="round"/>
<path d="M1 19.0002H16.3" stroke="#F7F7F7" stroke-width="2" stroke-linecap="round" stroke-linejoin="round"/>
<path d="M6.75099 8.20027H10.558C11.494 8.20027 12.259 7.75028 12.259 6.49928V5.39228C12.259 4.14128 11.494 3.69128 10.558 3.69128H6.75099C5.81499 3.69128 5.04999 4.14128 5.04999 5.39228V6.49928C5.04999 7.75028 5.81499 8.20027 6.75099 8.20027Z" stroke="#F7F7F7" stroke-width="2" stroke-linecap="round" stroke-linejoin="round"/>
<path d="M5.04999 10.9001H7.74999" stroke="#F7F7F7" stroke-width="2" stroke-linecap="round" stroke-linejoin="round"/>
<path d="M14.95 13.6093L19 13.6003V8.20029L17.2 7.30029" stroke="#F7F7F7" stroke-width="2" stroke-linecap="round" stroke-linejoin="round"/>
</svg>
