<svg width="40" height="40" viewBox="0 0 40 40" fill="none" xmlns="http://www.w3.org/2000/svg">
<rect opacity="0.1" width="40" height="40" rx="20" fill="#57BE71"/>
<path d="M27.875 20.6782V14.9425C27.875 13.2519 27.875 12.4066 27.546 11.7608C27.2566 11.1928 26.7948 10.731 26.2268 10.4416C25.581 10.1125 24.7357 10.1125 23.045 10.1125H16.605C14.9144 10.1125 14.069 10.1125 13.4233 10.4416C12.8553 10.731 12.3935 11.1928 12.1041 11.7608C11.775 12.4066 11.775 13.2519 11.775 14.9425V25.4076C11.775 27.0982 11.775 27.9435 12.1041 28.5893C12.3935 29.1573 12.8553 29.6191 13.4233 29.9085C14.069 30.2376 14.9144 30.2376 16.605 30.2376H19.825M23.045 19.1688H14.4584M19.4896 23.1938H14.4584M25.3594 15.1438H14.4584" stroke="#57BE71" stroke-width="0.875" stroke-linecap="round" stroke-linejoin="round"/>
<path d="M27.1203 25.4858L24.996 27.6101L23.9339 26.5479M26.1889 22.0118L26.8373 22.5644C27.0007 22.7036 27.2037 22.7878 27.4176 22.8049L28.2668 22.8727C28.766 22.9125 29.1628 23.309 29.2026 23.8082L29.2699 24.6575C29.287 24.8714 29.3713 25.0746 29.5105 25.2379L30.0633 25.8863C30.3882 26.2676 30.3879 26.8282 30.0631 27.2095L29.5107 27.8579C29.3715 28.0213 29.2871 28.2244 29.2701 28.4383L29.2021 29.2875C29.1623 29.7868 28.7663 30.1833 28.267 30.2232L27.4175 30.2909C27.2036 30.308 27.0005 30.3921 26.8372 30.5313L26.1889 31.084C25.8077 31.4088 25.2466 31.4088 24.8653 31.084L24.2171 30.5314C24.0537 30.3922 23.8507 30.308 23.6367 30.2909L22.7872 30.2232C22.2879 30.1833 21.892 29.7868 21.8521 29.2876L21.7842 28.4383C21.7671 28.2244 21.6827 28.0213 21.5435 27.8579L20.9912 27.2095C20.6663 26.8283 20.6662 26.2675 20.9911 25.8863L21.5438 25.2379C21.683 25.0745 21.7669 24.8715 21.7839 24.6575L21.8519 23.8082C21.8918 23.309 22.2884 22.9125 22.7877 22.8726L23.6364 22.8049C23.8504 22.7878 24.0538 22.7037 24.2171 22.5644L24.8655 22.0118C25.2467 21.687 25.8077 21.687 26.1889 22.0118Z" stroke="#57BE71" stroke-width="0.875" stroke-linecap="round" stroke-linejoin="round"/>
</svg>
