<svg width="40" height="40" viewBox="0 0 40 40" fill="none" xmlns="http://www.w3.org/2000/svg">
<rect opacity="0.1" width="40" height="40" rx="20" fill="#568DF0"/>
<path d="M14.962 15.2352L14.962 10.7538" stroke="#568DF0" stroke-width="0.875" stroke-linecap="round"/>
<path d="M12.7213 16.9158L12.7213 14.675" stroke="#568DF0" stroke-width="0.875" stroke-linecap="round"/>
<g clip-path="url(#clip0_215_277)">
<path d="M14.4018 28.8664C16.98 28.8664 19.07 26.7764 19.07 24.1982C19.07 21.62 16.98 19.53 14.4018 19.53C11.8236 19.53 9.73361 21.62 9.73361 24.1982C9.73361 26.7764 11.8236 28.8664 14.4018 28.8664Z" stroke="#568DF0" stroke-width="0.875" stroke-linecap="round" stroke-linejoin="round"/>
<path d="M12.2909 25.361L12.2909 25.361L12.2915 25.3616C12.4891 25.5202 12.7419 25.5941 12.9942 25.5671C13.2464 25.5402 13.4776 25.4146 13.6369 25.218L14.9735 23.6312C15.1402 23.4407 15.2242 23.1921 15.207 22.9399C15.1898 22.6877 15.0728 22.4526 14.8816 22.2863L14.8816 22.2863L14.881 22.2857C14.6834 22.1271 14.4307 22.0532 14.1784 22.0802C13.9262 22.1071 13.695 22.2327 13.5357 22.4293L12.1991 24.016C12.0324 24.2065 11.9483 24.4551 11.9655 24.7073C11.9827 24.9596 12.0997 25.1947 12.2909 25.361ZM13.2205 24.87L13.2205 24.87L13.2202 24.8703C13.1531 24.9532 13.0556 25.0062 12.9492 25.0175C12.8429 25.0289 12.7365 24.9978 12.6533 24.9311C12.6135 24.8965 12.5809 24.8544 12.5574 24.8072C12.5339 24.7599 12.5199 24.7085 12.5163 24.6558C12.5127 24.6032 12.5196 24.5503 12.5365 24.5003C12.5534 24.4503 12.5801 24.4041 12.6149 24.3643L12.6149 24.3643L12.6152 24.364L13.9519 22.7776L13.9519 22.7776L13.9522 22.7773C14.0194 22.6944 14.1168 22.6415 14.2232 22.6301C14.3295 22.6188 14.4359 22.6498 14.5191 22.7165C14.5995 22.7866 14.6486 22.8855 14.6559 22.9917C14.6631 23.0979 14.6277 23.2027 14.5574 23.283L14.5571 23.2833L13.2205 24.87Z" fill="#568DF0" stroke="#568DF0" stroke-width="0.0433884"/>
<path d="M13.6707 22.2853L13.6707 22.2853L13.6701 22.2858C13.4794 22.4518 13.3626 22.6864 13.3454 22.9381C13.3283 23.1897 13.4121 23.4379 13.5784 23.6279L14.9117 25.2111C14.9889 25.3103 15.0854 25.393 15.1954 25.4542C15.3055 25.5154 15.4269 25.5539 15.5523 25.5673C15.6777 25.5807 15.8045 25.5687 15.9252 25.5321C16.0458 25.4955 16.1578 25.4349 16.2544 25.3542C16.351 25.2734 16.4303 25.174 16.4874 25.062C16.5446 24.9499 16.5784 24.8276 16.587 24.7022C16.5955 24.5768 16.5786 24.451 16.5372 24.3323C16.4958 24.2137 16.4308 24.1046 16.3462 24.0117L15.0129 22.4286C14.854 22.2324 14.6233 22.1071 14.3717 22.0802C14.12 22.0533 13.8679 22.127 13.6707 22.2853ZM15.3276 24.8643L15.3276 24.8643L15.3274 24.864L13.9937 23.2807L13.9937 23.2807L13.9934 23.2804C13.9233 23.2003 13.888 23.0958 13.8952 22.9897C13.9024 22.8839 13.9515 22.7851 14.0316 22.7152C14.1147 22.6487 14.2208 22.6176 14.3268 22.629C14.433 22.6403 14.5302 22.6932 14.5972 22.7759L14.5972 22.7759L14.5975 22.7762L15.9311 24.3591L15.9311 24.3591L15.9314 24.3594C15.9662 24.3991 15.9928 24.4452 16.0097 24.4951C16.0266 24.545 16.0334 24.5978 16.0298 24.6503C16.0263 24.7028 16.0123 24.7542 15.9888 24.8014C15.9654 24.8484 15.9329 24.8904 15.8932 24.925C15.8101 24.9915 15.704 25.0225 15.598 25.0112C15.4919 24.9999 15.3946 24.947 15.3276 24.8643Z" fill="#568DF0" stroke="#568DF0" stroke-width="0.0433884"/>
</g>
<path d="M25.5158 14.9938L25.5158 12.5613" stroke="#568DF0" stroke-width="0.875" stroke-linecap="round"/>
<path d="M27.5768 12.2825L27.5768 9.84998" stroke="#568DF0" stroke-width="0.875" stroke-linecap="round"/>
<g clip-path="url(#clip1_215_277)">
<path d="M26.4242 24.8709C28.506 24.8709 30.1936 23.1833 30.1936 21.1015C30.1936 19.0197 28.506 17.332 26.4242 17.332C24.3424 17.332 22.6547 19.0197 22.6547 21.1015C22.6547 23.1833 24.3424 24.8709 26.4242 24.8709Z" stroke="#568DF0" stroke-width="0.875" stroke-linecap="round" stroke-linejoin="round"/>
<path d="M24.8591 22.2973L24.8591 22.2973L24.8597 22.2979C25.0202 22.4266 25.2253 22.4866 25.4301 22.4648C25.6349 22.4429 25.8226 22.3409 25.9519 22.1813L27.0311 20.9001C27.1664 20.7455 27.2346 20.5436 27.2207 20.3389C27.2067 20.1341 27.1117 19.9432 26.9565 19.8082L26.9565 19.8082L26.9559 19.8077C26.7954 19.6789 26.5903 19.6189 26.3855 19.6408C26.1808 19.6627 25.9931 19.7646 25.8637 19.9242L24.7846 21.2053C24.6492 21.36 24.581 21.5619 24.5949 21.7666C24.6089 21.9714 24.7039 22.1623 24.8591 22.2973ZM25.6093 21.895L25.6093 21.895L25.609 21.8953C25.5555 21.9614 25.4778 22.0036 25.3929 22.0127C25.3083 22.0217 25.2235 21.9969 25.1571 21.9438C25.1254 21.9162 25.0995 21.8827 25.0808 21.8451C25.062 21.8074 25.0509 21.7664 25.048 21.7244C25.0451 21.6825 25.0506 21.6403 25.0641 21.6005C25.0776 21.5606 25.0988 21.5238 25.1266 21.4921L25.1266 21.4921L25.1269 21.4917L26.2063 20.2108L26.2063 20.2108L26.2065 20.2105C26.2601 20.1444 26.3378 20.1022 26.4226 20.0932C26.5072 20.0841 26.592 20.1089 26.6584 20.162C26.7224 20.2178 26.7616 20.2967 26.7673 20.3812C26.7731 20.4659 26.7449 20.5495 26.6888 20.6135L26.6886 20.6138L25.6093 21.895Z" fill="#568DF0" stroke="#568DF0" stroke-width="0.0433884"/>
<path d="M25.9734 19.8073L25.9734 19.8073L25.9727 19.8079C25.8179 19.9426 25.7231 20.1331 25.7092 20.3374C25.6953 20.5417 25.7633 20.7431 25.8983 20.8975L26.9748 22.1758C27.0375 22.2563 27.1158 22.3234 27.2051 22.373C27.2945 22.4228 27.3931 22.454 27.4949 22.4649C27.5967 22.4757 27.6997 22.466 27.7976 22.4363C27.8956 22.4065 27.9865 22.3574 28.0649 22.2918C28.1434 22.2263 28.2077 22.1456 28.2542 22.0546C28.3006 21.9636 28.3281 21.8643 28.335 21.7624C28.3419 21.6606 28.3282 21.5585 28.2945 21.4621C28.2609 21.3658 28.2082 21.2773 28.1395 21.2018L27.063 19.9236C26.934 19.7643 26.7467 19.6626 26.5425 19.6408C26.3381 19.619 26.1335 19.6788 25.9734 19.8073ZM27.3172 21.8904L27.3172 21.8904L27.3169 21.8901L26.24 20.6117L26.24 20.6117L26.2397 20.6114C26.1838 20.5475 26.1557 20.4642 26.1614 20.3797C26.1672 20.2953 26.2062 20.2167 26.2701 20.1609C26.3363 20.1079 26.4209 20.0832 26.5053 20.0922C26.59 20.1013 26.6675 20.1434 26.7209 20.2094L26.7209 20.2094L26.7212 20.2097L27.7981 21.4878L27.798 21.4878L27.7983 21.4882C27.8261 21.5198 27.8472 21.5565 27.8607 21.5963C27.8742 21.6361 27.8796 21.6781 27.8768 21.72C27.8739 21.7619 27.8628 21.8028 27.8441 21.8404C27.8254 21.8778 27.7995 21.9113 27.7679 21.9389C27.7017 21.9919 27.6171 22.0166 27.5327 22.0076C27.4481 21.9985 27.3706 21.9564 27.3172 21.8904Z" fill="#568DF0" stroke="#568DF0" stroke-width="0.0433884"/>
</g>
<defs>
<clipPath id="clip0_215_277">
<rect width="11.2037" height="11.2037" fill="white" transform="translate(8.79999 18.5964)"/>
</clipPath>
<clipPath id="clip1_215_277">
<rect width="9.04669" height="9.04669" fill="white" transform="translate(21.9008 16.5781)"/>
</clipPath>
</defs>
</svg>
