<svg width="40" height="40" viewBox="0 0 40 40" fill="none" xmlns="http://www.w3.org/2000/svg">
<rect opacity="0.1" width="40" height="40" rx="20" fill="#F4B75A"/>
<path d="M11.2981 12.8338C11.2981 10.7863 12.6699 9.76257 14.3693 9.76257H22.5593C24.2587 9.76257 25.6306 10.7863 25.6306 12.8338V30.2376H11.2981V15.7343" stroke="#F4B75A" stroke-width="0.875" stroke-linecap="round" stroke-linejoin="round"/>
<path d="M9.76248 30.2378H27.1662" stroke="#F4B75A" stroke-width="0.7" stroke-linecap="round" stroke-linejoin="round"/>
<path d="M16.3042 17.9528H20.6347C21.6994 17.9528 22.5696 17.441 22.5696 16.018V14.7587C22.5696 13.3357 21.6994 12.8239 20.6347 12.8239H16.3042C15.2395 12.8239 14.3693 13.3357 14.3693 14.7587V16.018C14.3693 17.441 15.2395 17.9528 16.3042 17.9528Z" stroke="#F4B75A" stroke-width="0.875" stroke-linecap="round" stroke-linejoin="round"/>
<path d="M14.3693 21.0239H17.4406" stroke="#F4B75A" stroke-width="0.875" stroke-linecap="round" stroke-linejoin="round"/>
<path d="M14.8812 23.4125L16.9287 23.4125" stroke="#F4B75A" stroke-width="0.875" stroke-linecap="round" stroke-linejoin="round"/>
<path d="M25.6306 24.1055L30.2375 24.0952V17.9527L27.6781 16.5874" stroke="#F4B75A" stroke-width="0.875" stroke-linecap="round" stroke-linejoin="round"/>
</svg>
