<svg width="30" height="30" viewBox="0 0 30 30" fill="none" xmlns="http://www.w3.org/2000/svg">
<path d="M6.58336 12.2064C7.16822 10.437 8.29696 8.8974 9.80855 7.80737C11.3201 6.71733 13.1374 6.13252 15.001 6.13634C17.1135 6.13634 19.0235 6.88636 20.5236 8.11387L24.8886 3.75006C22.2286 1.43127 18.8198 0 15.001 0C9.0884 0 3.99832 3.37255 1.55078 8.31263L6.58336 12.2064Z" fill="#EA4335"/>
<path d="M20.049 22.5163C18.6864 23.395 16.9564 23.8638 14.9989 23.8638C13.1427 23.8676 11.3323 23.2875 9.82409 22.2055C8.31586 21.1235 7.18619 19.5945 6.595 17.835L1.54492 21.6688C2.784 24.1767 4.70156 26.2868 7.07978 27.7596C9.45801 29.2323 12.2016 30.0085 14.9989 30.0001C18.6652 30.0001 22.1677 28.6964 24.7915 26.2501L20.0502 22.5163H20.049Z" fill="#34A853"/>
<path d="M24.7927 26.2507C27.5364 23.6906 29.3177 19.8806 29.3177 15.0005C29.3177 14.113 29.1815 13.1592 28.9777 12.2729H15V18.0693H23.0451C22.6489 20.0181 21.5826 21.5268 20.0513 22.5169L24.7927 26.2507Z" fill="#4A90E2"/>
<path d="M6.5965 17.8356C6.29069 16.9218 6.13533 15.9643 6.13649 15.0006C6.13649 14.0231 6.29274 13.0843 6.58275 12.2068L1.55017 8.31299C0.520626 10.3914 -0.0101001 12.6812 0.00014557 15.0006C0.00014557 17.4006 0.556404 19.6632 1.54642 21.6694L6.5965 17.8356Z" fill="#FBBC05"/>
</svg>
