<?xml version="1.0" encoding="iso-8859-1"?>

<!DOCTYPE svg PUBLIC "-//W3C//DTD SVG 1.1//EN" "http://www.w3.org/Graphics/SVG/1.1/DTD/svg11.dtd">
<!-- Uploaded to: SVG Repo, www.svgrepo.com, Generator: SVG Repo Mixer Tools -->
<svg height="800px" width="800px" version="1.1" id="_x35_" xmlns="http://www.w3.org/2000/svg" xmlns:xlink="http://www.w3.org/1999/xlink" 
	 viewBox="0 0 512 512"  xml:space="preserve">
<g>
	<path style="fill:#5E4F4F;" d="M471.675,444.169v6.384c0,13.752-0.082,42.973-0.082,42.973h-41.336l-27.094-20.708l-147.909-0.082
		H108.736l-27.012,20.627H40.306c0,0,0-4.175,0-10.069v-39.289l203.652,0.082h11.296l197.513,0.082H471.675z"/>
	<path style="fill:#BD603F;" d="M508.345,409.953l-56.152-97.241l-4.584-8.023L294.052,38.421l-3.52-6.057l-10.887-18.909
		c-4.83-8.267-12.933-12.77-21.364-13.342c-9.822-0.9-19.972,3.602-25.538,13.342l-9.577,16.617l-4.666,7.94l-43.874,75.96
		l-4.502,7.858l-22.101,38.143L18.042,385.07H17.96l-4.584,7.94l-9.659,16.78c-4.011,6.958-4.584,14.57-2.537,21.283
		c0.246,0.818,0.491,1.637,0.9,2.455c0.573,1.556,1.392,3.029,2.292,4.502c2.537,3.929,6.057,7.121,10.232,9.331
		c1.309,0.654,2.701,1.309,4.175,1.719c2.619,0.818,5.402,1.31,8.349,1.31h13.178l416.144,0.163h28.403
		C505.726,450.553,518.741,428.043,508.345,409.953z M248.133,185.92c4.42-7.613,11.541-7.613,15.961,0l91.185,166.163
		c4.339,7.613,0.818,13.834-7.94,13.834l-182.616-0.082c-8.758-0.082-12.36-6.221-7.94-13.834L248.133,185.92z"/>
	<path style="fill:#D37A3E;" d="M484.864,450.58l-19.201-0.009L260.956,95.615l33.062-57.205l153.579,266.301l4.597,7.962
		l56.124,97.319C518.723,428.035,505.689,450.589,484.864,450.58z"/>
	<path style="fill:#D37A3E;" d="M452.767,444.169l-30.122-52.305c1.801-0.982,2.947-2.456,3.438-4.257
		c0.573-1.883,0.409-4.093-0.737-6.467c-0.245-0.573-0.491-1.063-0.818-1.637l-38.553-66.792l-4.584-7.941L264.094,101.366
		c-0.327-0.492-0.654-0.982-0.9-1.473c-0.9-1.311-1.883-2.292-2.947-3.03c-0.367-0.23-0.756-0.274-1.133-0.444
		c-0.305-0.15-0.609-0.342-0.914-0.457c-0.135-0.042-0.277-0.029-0.413-0.063c-0.377-0.094-0.741-0.144-1.119-0.172
		c-0.834-0.059-1.67-0.018-2.479,0.235c-0.655,0.164-1.228,0.41-1.801,0.736c0,0-0.082,0-0.082,0.082
		c-0.409,0.246-0.818,0.573-1.228,0.901c-0.409,0.327-0.737,0.654-1.146,1.063l1.801-3.109l4.584-8.021l32.823-56.644l0.246-0.491
		l-9.741-17.025c-4.83-8.267-12.933-12.77-21.364-13.342c-9.822-0.9-19.972,3.602-25.538,13.342l-9.577,16.617l-4.666,7.94
		l-43.874,75.96l-4.502,7.858l-22.101,38.143L17.96,385.07h0.082l67.611,0.082c-0.082,1.802,0.409,3.438,1.473,4.748
		c1.637,1.964,4.42,3.192,8.349,3.192h-1.228l-80.871-0.082h-0.082l-9.659,16.78c-4.011,6.958-4.502,14.57-2.456,21.283
		c0.246,0.818,0.491,1.637,0.9,2.455c0.573,1.556,1.392,3.029,2.292,4.502c2.537,3.929,6.057,7.121,10.232,9.331
		c1.309,0.654,2.701,1.309,4.175,1.719c2.619,0.818,5.402,1.31,8.349,1.31h13.178l416.144,0.163L452.767,444.169z M347.339,365.917
		l-182.616-0.082c-8.758-0.082-12.36-6.221-7.94-13.834l91.349-166.081c4.42-7.613,11.541-7.613,15.961,0l91.185,166.163
		C359.617,359.696,356.097,365.917,347.339,365.917z"/>
	<polygon style="fill:#BD603F;" points="248.714,49.113 241.27,36.206 248.726,23.306 263.626,23.312 271.07,36.22 263.614,49.12 	
		"/>
	<polygon style="fill:#BD603F;" points="26.44,435.094 18.996,422.187 26.452,409.287 41.351,409.294 48.795,422.201 41.34,435.101 
			"/>
	<polygon style="fill:#BD603F;" points="474.615,435.3 467.171,422.393 474.626,409.492 489.526,409.499 496.97,422.406 
		489.514,435.307 	"/>
	<path style="fill:#EED581;" d="M425.346,381.141c-0.245-0.573-0.491-1.063-0.818-1.637l-38.553-66.792l-4.584-7.941
		L264.094,101.366c-0.327-0.492-0.654-0.982-0.9-1.473c-0.327-0.41-0.655-0.819-0.982-1.065c-0.327-0.409-0.655-0.736-0.982-0.981
		c-0.327-0.41-0.737-0.655-1.064-0.901c-0.655-0.41-1.309-0.736-1.964-0.982c-1.31-0.409-2.701-0.409-4.011,0
		c-0.573,0.164-1.228,0.491-1.801,0.818h-0.082c-0.409,0.246-0.818,0.573-1.228,0.901c-0.409,0.327-0.819,0.817-1.228,1.227
		c-0.573,0.655-1.146,1.474-1.719,2.456l-40.436,69.985l-4.584,7.858L87.454,379.422c-1.228,2.046-1.801,4.011-1.801,5.729
		c-0.082,1.802,0.409,3.438,1.473,4.748c0.765,0.99,1.912,1.746,3.28,2.308c0.092,0.036,0.222,0.038,0.318,0.073
		c1.056,0.396,2.172,0.744,3.524,0.811c0.328,0.081,0.737,0.081,1.146,0.081h28.731l292.381,0.164c2.456,0,4.502-0.491,6.058-1.391
		c0,0,0.081,0,0.081-0.082c1.801-0.982,2.947-2.456,3.438-4.257C426.574,385.725,426.41,383.515,425.346,381.141z M317.299,335.957
		l-122.617-0.082c-8.758,0-12.278-6.22-7.94-13.751l61.39-106.164c4.338-7.531,11.541-7.531,15.879,0l61.227,106.246
		C329.659,329.737,326.057,335.957,317.299,335.957z"/>
	<path style="opacity:0.06;fill:#2E1919;" d="M264.012,101.366c-0.573-0.982-1.146-1.882-1.801-2.538
		c-0.327-0.409-0.655-0.736-0.982-0.981c-0.327-0.328-0.737-0.573-1.064-0.819c-0.655-0.41-1.309-0.736-1.964-1.064
		c-1.31-0.409-2.701-0.409-4.011,0c-0.655,0.164-1.228,0.41-1.801,0.736v0.082h-0.082c-0.409,0.246-0.818,0.573-1.228,0.901
		c-0.409,0.327-0.819,0.817-1.228,1.227c-0.573,0.655-1.146,1.474-1.719,2.456l-40.436,69.985l-4.584,7.858L87.454,379.422
		c-1.228,2.046-1.801,4.011-1.801,5.729c-0.082,1.802,0.409,3.438,1.473,4.748c0.765,0.99,1.912,1.746,3.28,2.308
		c0.092,0.036,0.222,0.038,0.318,0.073c1.056,0.396,2.172,0.744,3.524,0.811c0.328,0.081,0.737,0.081,1.146,0.081h28.731
		c-6.303,0-9.904-3.273-9.823-8.021c0.082-1.719,0.655-3.683,1.882-5.729l115.659-200.214l4.584-7.858l33.969-58.853
		L264.012,101.366z"/>
</g>
</svg>