<svg width="24" height="24" viewBox="0 0 24 24" fill="none" xmlns="http://www.w3.org/2000/svg">
<path d="M21 19L15 19M15 19C15 17.8954 14.1046 17 13 17C11.8954 17 11 17.8954 11 19C11 20.1046 11.8954 21 13 21C14.1046 21 15 20.1046 15 19ZM7 19H3M21 12L15 12M7 12H3M7 12C7 13.1046 7.89543 14 9 14C10.1046 14 11 13.1046 11 12C11 10.8954 10.1046 10 9 10C7.89543 10 7 10.8954 7 12ZM21 5L17 5M17 5C17 3.89543 16.1046 3 15 3C13.8954 3 13 3.89543 13 5C13 6.10457 13.8954 7 15 7C16.1046 7 17 6.10457 17 5ZM9 5H3" stroke="black" stroke-width="2" stroke-linecap="round" stroke-linejoin="round"/>
</svg>
