<svg width="18" height="20" viewBox="0 0 18 20" fill="none" xmlns="http://www.w3.org/2000/svg">
<path d="M1.41406 12.5858L1.80357 12.1963C1.92924 12.0706 2 11.9002 2 11.7224V8C2 4.13401 5.13401 1.00001 9 1C12.866 0.999991 16 4.134 16 8V11.7224C16 11.9001 16.0706 12.0706 16.1963 12.1963L16.5858 12.5858C16.7051 12.7051 16.7649 12.7648 16.8124 12.831C16.9023 12.9561 16.9619 13.1003 16.9868 13.2523C17 13.3328 17.0002 13.4171 17.0002 13.5858C17.0002 13.9714 17.0002 14.1642 16.9478 14.3197C16.848 14.6155 16.6156 14.8477 16.3198 14.9475C16.1643 15 15.9712 15 15.5856 15H2.41406C2.02852 15 1.83568 15 1.68018 14.9475C1.38431 14.8477 1.15225 14.6155 1.05245 14.3196C1 14.1641 1 13.9714 1 13.5858C1 13.4171 1 13.3328 1.0132 13.2523C1.03815 13.1003 1.09766 12.9561 1.1875 12.831C1.23504 12.7648 1.29476 12.7051 1.41406 12.5858ZM12 15V16C12 17.6569 10.6569 19 9 19C7.34315 19 6 17.6569 6 16V15H12Z" stroke="#13A3FD" stroke-width="2" stroke-linecap="round" stroke-linejoin="round"/>
</svg>
