<svg width="24" height="24" viewBox="0 0 24 24" fill="none" xmlns="http://www.w3.org/2000/svg">
<circle cx="17" cy="6" r="5" fill="#F7F7F7"/>
<path d="M15 17H16C16 16.4477 15.5523 16 15 16V17ZM9 17V16C8.44772 16 8 16.4477 8 17H9ZM13.7548 4.26042C14.2831 4.42168 14.842 4.12421 15.0033 3.59599C15.1645 3.06777 14.867 2.50884 14.3388 2.34758L13.7548 4.26042ZM4.80371 14.1963L5.51084 14.9034L5.51087 14.9034L4.80371 14.1963ZM4.29297 14.7071L3.58584 14L3.58573 14.0001L4.29297 14.7071ZM19.707 14.707L20.4143 14.0001L20.4141 13.9999L19.707 14.707ZM19.9776 9.40008C19.9355 8.8494 19.455 8.43706 18.9044 8.4791C18.3537 8.52113 17.9413 9.00163 17.9834 9.55231L19.9776 9.40008ZM14 17V18H16V17H14ZM10 18V17H8V18H10ZM9 18H15V16H9V18ZM12 20C10.8954 20 10 19.1046 10 18H8C8 20.2091 9.79086 22 12 22V20ZM14 18C14 19.1046 13.1046 20 12 20V22C14.2091 22 16 20.2091 16 18H14ZM20 6C20 7.65685 18.6569 9 17 9V11C19.7614 11 22 8.76142 22 6H20ZM17 9C15.3431 9 14 7.65685 14 6H12C12 8.76142 14.2386 11 17 11V9ZM14 6C14 4.34315 15.3431 3 17 3V1C14.2386 1 12 3.23858 12 6H14ZM17 3C18.6569 3 20 4.34315 20 6H22C22 3.23858 19.7614 1 17 1V3ZM14.3388 2.34758C13.5978 2.12134 12.8122 2 12 2V4C12.6121 4 13.201 4.09133 13.7548 4.26042L14.3388 2.34758ZM12 2C7.58172 2 4 5.58172 4 9.99998H6C6 6.6863 8.68628 4 12 4V2ZM4 9.99998V13.7224H6V9.99998H4ZM4 13.7224C4 13.6349 4.03478 13.551 4.09655 13.4893L5.51087 14.9034C5.824 14.5902 6 14.1655 6 13.7224H4ZM4.09658 13.4892L3.58584 14L5.0001 15.4142L5.51084 14.9034L4.09658 13.4892ZM3.58573 14.0001C3.21105 14.3749 3 14.8833 3 15.4141H5L5.00021 15.4141L3.58573 14.0001ZM3 15.4141V16H5V15.4141H3ZM3 16C3 17.1046 3.89543 18 5 18V16V16H3ZM5 18H19V16H5V18ZM19 18C20.1046 18 21 17.1046 21 16H19V18ZM21 16V15.4142H19V16H21ZM21 15.4142C21 14.8835 20.789 14.3749 20.4143 14.0001L18.9997 15.4139L19 15.4142H21ZM20.4141 13.9999L19.9034 13.4892L18.4892 14.9034L18.9999 15.4141L20.4141 13.9999ZM19.9034 13.4892C19.9652 13.551 20 13.635 20 13.7224H18C18 14.1655 18.176 14.5902 18.4892 14.9034L19.9034 13.4892ZM20 13.7224V10H18V13.7224H20ZM20 10C20 9.79957 19.9928 9.59924 19.9776 9.40008L17.9834 9.55231C17.9945 9.69807 18 9.84755 18 10H20Z" fill="#1D2A31"/>
</svg>
