<svg width="18" height="13" viewBox="0 0 18 13" fill="none" xmlns="http://www.w3.org/2000/svg">
<path d="M1.70711 6.29302C1.31658 5.90249 0.683417 5.90249 0.292893 6.29302C-0.0976311 6.68354 -0.0976311 7.3167 0.292893 7.70723L1.70711 6.29302ZM5.94975 11.9499L5.24264 12.657C5.63316 13.0475 6.26631 13.0475 6.65684 12.657L5.94975 11.9499ZM17.2639 2.05038C17.6544 1.65987 17.6544 1.0267 17.2639 0.63617C16.8734 0.245637 16.2402 0.245624 15.8497 0.63614L17.2639 2.05038ZM0.292893 7.70723L5.24264 12.657L6.65685 11.2428L1.70711 6.29302L0.292893 7.70723ZM6.65684 12.657L17.2639 2.05038L15.8497 0.63614L5.24266 11.2427L6.65684 12.657Z" fill="white"/>
</svg>
