<svg width="30" height="30" viewBox="0 0 30 30" fill="none" xmlns="http://www.w3.org/2000/svg">
<path d="M15 30C6.7195 29.9909 0.00909356 23.2805 0 15V14.7C0.164897 6.45682 6.95188 -0.108039 15.196 0.00134733C23.4401 0.110733 30.0505 6.85336 29.9967 15.098C29.9428 23.3427 23.2449 29.9984 15 30ZM14.976 27H15C21.6251 26.9934 26.9913 21.6191 26.988 14.994C26.9847 8.36896 21.6131 3.00003 14.988 3.00003C8.36293 3.00003 2.99131 8.36896 2.988 14.994C2.98469 21.6191 8.35093 26.9934 14.976 27ZM19.5 21H16.5V9.00003H19.5V21ZM13.5 21H10.5V9.00003H13.5V21Z" fill="#8D8D8D"/>
</svg>
