<svg width="56" height="56" viewBox="0 0 56 56" fill="none" xmlns="http://www.w3.org/2000/svg">
<path d="M23.3333 21L23.8478 20.1425C23.5389 19.9571 23.1541 19.9523 22.8406 20.1298C22.5271 20.3073 22.3333 20.6397 22.3333 21H23.3333ZM23.3333 35H22.3333C22.3333 35.3603 22.5271 35.6927 22.8406 35.8702C23.1541 36.0477 23.5389 36.0429 23.8478 35.8575L23.3333 35ZM35 28L35.5145 28.8575C35.8157 28.6768 36 28.3513 36 28C36 27.6487 35.8157 27.3232 35.5145 27.1425L35 28ZM28 48C16.9543 48 8 39.0457 8 28H6C6 40.1503 15.8497 50 28 50V48ZM8 28C8 16.9543 16.9543 8 28 8V6C15.8497 6 6 15.8497 6 28H8ZM28 8C39.0457 8 48 16.9543 48 28H50C50 15.8497 40.1503 6 28 6V8ZM48 28C48 39.0457 39.0457 48 28 48V50C40.1503 50 50 40.1503 50 28H48ZM22.3333 21V35H24.3333V21H22.3333ZM23.8478 35.8575L35.5145 28.8575L34.4855 27.1425L22.8188 34.1425L23.8478 35.8575ZM35.5145 27.1425L23.8478 20.1425L22.8188 21.8575L34.4855 28.8575L35.5145 27.1425Z" fill="#13A3FD"/>
</svg>
