<svg width="26" height="25" viewBox="0 0 26 25" fill="none" xmlns="http://www.w3.org/2000/svg">
<path d="M20.3545 20.7083H21.388M17.254 20.7083H15.187V17.6078M18.2875 17.6078H21.388V14.5073H20.3545M15.187 14.5073H17.254M4.85205 17.6078C4.85205 16.6447 4.85205 16.1631 5.00939 15.7833C5.21918 15.2768 5.6218 14.8744 6.12827 14.6646C6.50813 14.5073 6.98968 14.5073 7.95277 14.5073C8.91587 14.5073 9.39718 14.5073 9.77703 14.6646C10.2835 14.8744 10.6858 15.2768 10.8956 15.7833C11.0529 16.1631 11.0529 16.6447 11.0529 17.6078C11.0529 18.5709 11.0529 19.0524 10.8956 19.4323C10.6858 19.9388 10.2835 20.3412 9.77703 20.5509C9.39718 20.7083 8.91586 20.7083 7.95277 20.7083C6.98968 20.7083 6.50813 20.7083 6.12827 20.5509C5.6218 20.3412 5.21918 19.9388 5.00939 19.4323C4.85205 19.0524 4.85205 18.5709 4.85205 17.6078ZM15.187 7.27283C15.187 6.30974 15.187 5.82819 15.3443 5.44833C15.5541 4.94186 15.9567 4.53949 16.4632 4.3297C16.8431 4.17236 17.3246 4.17236 18.2877 4.17236C19.2508 4.17236 19.7321 4.17236 20.112 4.3297C20.6184 4.53949 21.0207 4.94186 21.2305 5.44833C21.3879 5.82819 21.3879 6.30975 21.3879 7.27285C21.3879 8.23594 21.3879 8.71749 21.2305 9.09734C21.0207 9.60381 20.6184 10.0062 20.112 10.216C19.7321 10.3733 19.2508 10.3733 18.2877 10.3733C17.3246 10.3733 16.8431 10.3733 16.4632 10.216C15.9567 10.0062 15.5541 9.60381 15.3443 9.09734C15.187 8.71749 15.187 8.23593 15.187 7.27283ZM4.85205 7.27283C4.85205 6.30974 4.85205 5.82819 5.00939 5.44833C5.21918 4.94186 5.6218 4.53949 6.12827 4.3297C6.50813 4.17236 6.98968 4.17236 7.95277 4.17236C8.91587 4.17236 9.39718 4.17236 9.77703 4.3297C10.2835 4.53949 10.6858 4.94186 10.8956 5.44833C11.0529 5.82819 11.0529 6.30975 11.0529 7.27285C11.0529 8.23594 11.0529 8.71749 10.8956 9.09734C10.6858 9.60381 10.2835 10.0062 9.77703 10.216C9.39718 10.3733 8.91586 10.3733 7.95277 10.3733C6.98968 10.3733 6.50813 10.3733 6.12827 10.216C5.6218 10.0062 5.21918 9.60381 5.00939 9.09734C4.85205 8.71749 4.85205 8.23593 4.85205 7.27283Z" stroke="#1D2A31" stroke-width="1.55024" stroke-linecap="round" stroke-linejoin="round"/>
</svg>
