<svg width="40" height="40" viewBox="0 0 40 40" fill="none" xmlns="http://www.w3.org/2000/svg">
<circle opacity="0.1" cx="20" cy="20" r="20" fill="#FF6871"/>
<path d="M19.6816 26.9992V26.9805" stroke="#FF4264" stroke-width="2" stroke-linecap="round" stroke-linejoin="round"/>
<path d="M15 16.2135C15 15.3801 15.2746 14.5655 15.789 13.8726C16.3034 13.1797 17.0346 12.6396 17.8901 12.3207C18.7455 12.0018 19.6868 11.9184 20.595 12.081C21.5031 12.2435 22.3373 12.6448 22.9921 13.2341C23.6468 13.8234 24.0927 14.5741 24.2733 15.3915C24.454 16.2088 24.3613 17.056 24.0069 17.8259C23.6526 18.5958 23.0525 19.2539 22.2826 19.7169C21.5127 20.1798 20.6076 20.427 19.6816 20.427L19.6816 21.3633" stroke="#FF4264" stroke-width="2" stroke-linecap="round" stroke-linejoin="round"/>
</svg>
