<svg width="24" height="24" viewBox="0 0 24 24" fill="none" xmlns="http://www.w3.org/2000/svg">
<path d="M4 7C3.44772 7 3 7.44772 3 8C3 8.55228 3.44772 9 4 9V7ZM20 9C20.5523 9 21 8.55228 21 8C21 7.44772 20.5523 7 20 7V9ZM5.0918 19.782L5.54579 18.891H5.54579L5.0918 19.782ZM4.21799 18.908L3.32698 19.362H3.32698L4.21799 18.908ZM19.7822 18.908L18.8912 18.454L19.7822 18.908ZM18.9078 19.782L18.4538 18.891L18.9078 19.782ZM18.9078 4.21799L19.3618 3.32698V3.32698L18.9078 4.21799ZM19.7822 5.09204L18.8912 5.54603L19.7822 5.09204ZM5.0918 4.21799L5.54579 5.10899L5.0918 4.21799ZM4.21799 5.09204L5.10899 5.54603L4.21799 5.09204ZM14.5 15C15.0523 15 15.5 14.5523 15.5 14C15.5 13.4477 15.0523 13 14.5 13V15ZM9.5 13C8.94772 13 8.5 13.4477 8.5 14C8.5 14.5523 8.94772 15 9.5 15V13ZM13 11.5C13 10.9477 12.5523 10.5 12 10.5C11.4477 10.5 11 10.9477 11 11.5H13ZM11 16.5C11 17.0523 11.4477 17.5 12 17.5C12.5523 17.5 13 17.0523 13 16.5H11ZM17 2C17 1.44772 16.5523 1 16 1C15.4477 1 15 1.44772 15 2H17ZM15 4C15 4.55228 15.4477 5 16 5C16.5523 5 17 4.55228 17 4H15ZM9 2C9 1.44772 8.55228 1 8 1C7.44772 1 7 1.44772 7 2H9ZM7 4C7 4.55228 7.44772 5 8 5C8.55228 5 9 4.55228 9 4H7ZM4 9H20V7H4V9ZM7.2002 5H16.8002V3H7.2002V5ZM19 7.19995V16.8H21V7.19995H19ZM16.8002 19H7.2002V21H16.8002V19ZM5 16.8V7.19995H3V16.8H5ZM7.2002 19C6.62367 19 6.25127 18.9992 5.96782 18.9761C5.69598 18.9538 5.59519 18.9161 5.54579 18.891L4.63781 20.673C5.01623 20.8658 5.40959 20.9371 5.80496 20.9694C6.18873 21.0008 6.65662 21 7.2002 21V19ZM3 16.8C3 17.3435 2.99922 17.8113 3.03057 18.195C3.06287 18.5904 3.13418 18.9836 3.32698 19.362L5.10899 18.454C5.08381 18.4046 5.04613 18.3039 5.02393 18.0322C5.00078 17.7488 5 17.3765 5 16.8H3ZM5.54579 18.891C5.35778 18.7952 5.20494 18.6424 5.10899 18.454L3.32698 19.362C3.61452 19.9264 4.07317 20.3853 4.63781 20.673L5.54579 18.891ZM19 16.8C19 17.3766 18.9993 17.7489 18.9762 18.0323C18.954 18.3041 18.9163 18.4047 18.8912 18.454L20.6732 19.362C20.8661 18.9835 20.9373 18.5902 20.9696 18.1949C21.0008 17.8112 21 17.3434 21 16.8H19ZM16.8002 21C17.3438 21 17.8115 21.0008 18.1951 20.9694C18.5904 20.9371 18.9835 20.8657 19.3618 20.673L18.4538 18.891C18.4043 18.9162 18.3036 18.9539 18.0321 18.9761C17.7489 18.9992 17.3767 19 16.8002 19V21ZM18.8912 18.454C18.7956 18.6417 18.6425 18.7948 18.4538 18.891L19.3618 20.673C19.9257 20.3856 20.3853 19.927 20.6732 19.362L18.8912 18.454ZM16.8002 5C17.3768 5 17.7489 5.00078 18.0321 5.02393C18.3036 5.04611 18.4043 5.08377 18.4538 5.10899L19.3618 3.32698C18.9835 3.13421 18.5904 3.06288 18.1951 3.03057C17.8115 2.99922 17.3437 3 16.8002 3V5ZM21 7.19995C21 6.6565 21.0008 6.1887 20.9695 5.80511C20.9373 5.40983 20.8661 5.01653 20.6732 4.63805L18.8912 5.54603C18.9164 5.59537 18.954 5.69598 18.9762 5.96767C18.9993 6.25105 19 6.6233 19 7.19995H21ZM18.4538 5.10899C18.6424 5.20508 18.7956 5.35828 18.8912 5.54603L20.6732 4.63805C20.3854 4.07315 19.9259 3.61439 19.3618 3.32698L18.4538 5.10899ZM7.2002 3C6.65663 3 6.18874 2.99922 5.80498 3.03057C5.40962 3.06286 5.01624 3.13416 4.63781 3.32698L5.54579 5.10899C5.59517 5.08383 5.69595 5.04613 5.9678 5.02393C6.25126 5.00078 6.62365 5 7.2002 5V3ZM5 7.19995C5 6.6234 5.00078 6.25114 5.02393 5.96783C5.04612 5.6962 5.0838 5.59549 5.10899 5.54603L3.32698 4.63805C3.13419 5.01642 3.06287 5.40961 3.03057 5.80495C2.99922 6.18861 3 6.6564 3 7.19995H5ZM4.63781 3.32698C4.07306 3.61473 3.61447 4.07382 3.32698 4.63805L5.10899 5.54603C5.205 5.35761 5.35788 5.20474 5.54579 5.10899L4.63781 3.32698ZM14.5 13H9.5V15H14.5V13ZM11 11.5V16.5H13V11.5H11ZM15 2V4H17V2H15ZM7 2V4H9V2H7Z" fill="#F7F7F7"/>
</svg>
