<svg width="24" height="24" viewBox="0 0 24 24" fill="none" xmlns="http://www.w3.org/2000/svg">
<path d="M13.8194 22H10.1794C9.70955 22 9.30299 21.673 9.20243 21.214L8.79543 19.33C8.25248 19.0921 7.73765 18.7946 7.26043 18.443L5.42343 19.028C4.97543 19.1709 4.48842 18.9823 4.25343 18.575L2.42943 15.424C2.19702 15.0165 2.27709 14.5025 2.62243 14.185L4.04743 12.885C3.98263 12.2961 3.98263 11.7019 4.04743 11.113L2.62243 9.816C2.27658 9.49837 2.19648 8.98372 2.42943 8.576L4.24943 5.423C4.48442 5.0157 4.97143 4.82714 5.41943 4.97L7.25643 5.555C7.50049 5.37416 7.75456 5.20722 8.01743 5.055C8.26977 4.91269 8.52947 4.78385 8.79543 4.669L9.20343 2.787C9.3035 2.32797 9.70962 2.00049 10.1794 2H13.8194C14.2892 2.00049 14.6954 2.32797 14.7954 2.787L15.2074 4.67C15.4882 4.79352 15.7617 4.93308 16.0264 5.088C16.2734 5.23081 16.5121 5.38739 16.7414 5.557L18.5794 4.972C19.0271 4.82967 19.5135 5.01816 19.7484 5.425L21.5684 8.578C21.8008 8.98548 21.7208 9.49951 21.3754 9.817L19.9504 11.117C20.0152 11.7059 20.0152 12.3001 19.9504 12.889L21.3754 14.189C21.7208 14.5065 21.8008 15.0205 21.5684 15.428L19.7484 18.581C19.5135 18.9878 19.0271 19.1763 18.5794 19.034L16.7414 18.449C16.5089 18.6203 16.2672 18.7789 16.0174 18.924C15.7553 19.0759 15.4848 19.2131 15.2074 19.335L14.7954 21.214C14.695 21.6726 14.2889 21.9996 13.8194 22ZM7.61943 16.229L8.43943 16.829C8.62428 16.9652 8.81694 17.0904 9.01643 17.204C9.20413 17.3127 9.3974 17.4115 9.59543 17.5L10.5284 17.909L10.9854 20H13.0154L13.4724 17.908L14.4054 17.499C14.8127 17.3194 15.1993 17.0961 15.5584 16.833L16.3794 16.233L18.4204 16.883L19.4354 15.125L17.8524 13.682L17.9644 12.67C18.0136 12.2274 18.0136 11.7806 17.9644 11.338L17.8524 10.326L19.4364 8.88L18.4204 7.121L16.3794 7.771L15.5584 7.171C15.1992 6.90671 14.8127 6.68175 14.4054 6.5L13.4724 6.091L13.0154 4H10.9854L10.5264 6.092L9.59543 6.5C9.39724 6.58704 9.20395 6.68486 9.01643 6.793C8.81817 6.90633 8.62652 7.03086 8.44243 7.166L7.62143 7.766L5.58143 7.116L4.56443 8.88L6.14743 10.321L6.03543 11.334C5.98623 11.7766 5.98623 12.2234 6.03543 12.666L6.14743 13.678L4.56443 15.121L5.57943 16.879L7.61943 16.229ZM11.9954 16C9.78629 16 7.99543 14.2091 7.99543 12C7.99543 9.79086 9.78629 8 11.9954 8C14.2046 8 15.9954 9.79086 15.9954 12C15.9927 14.208 14.2034 15.9972 11.9954 16ZM11.9954 10C10.9028 10.0011 10.0133 10.8788 9.99766 11.9713C9.98201 13.0638 10.846 13.9667 11.9381 13.9991C13.0302 14.0315 13.9463 13.1815 13.9954 12.09V12.49V12C13.9954 10.8954 13.1 10 11.9954 10Z" fill="#F7F7F7"/>
</svg>
