<svg width="20" height="14" viewBox="0 0 20 14" fill="none" xmlns="http://www.w3.org/2000/svg">
<path d="M13 7C13 7.79565 12.6839 8.55871 12.1213 9.12132C11.5587 9.68393 10.7956 10 10 10C9.20435 10 8.44129 9.68393 7.87868 9.12132C7.31607 8.55871 7 7.79565 7 7C7 6.20435 7.31607 5.44129 7.87868 4.87868C8.44129 4.31607 9.20435 4 10 4C10.7956 4 11.5587 4.31607 12.1213 4.87868C12.6839 5.44129 13 6.20435 13 7Z" fill="#8D8D8D"/>
<path d="M19.8935 6.553C17.7355 2.236 13.9035 0 9.99947 0C6.09647 0 2.26347 2.236 0.105466 6.553C0.0361074 6.6918 0 6.84484 0 7C0 7.15516 0.0361074 7.3082 0.105466 7.447C2.26347 11.764 6.09547 14 9.99947 14C13.9025 14 17.7355 11.764 19.8935 7.447C19.9628 7.3082 19.9989 7.15516 19.9989 7C19.9989 6.84484 19.9628 6.6918 19.8935 6.553ZM9.99947 12C7.03047 12 3.99747 10.38 2.12947 7C3.99747 3.62 7.02947 2 9.99947 2C12.9685 2 16.0015 3.62 17.8695 7C16.0015 10.38 12.9685 12 9.99947 12Z" fill="#8D8D8D"/>
</svg>
