<svg width="20" height="22" viewBox="0 0 20 22" fill="none" xmlns="http://www.w3.org/2000/svg">
<ellipse cx="10.0004" cy="4.76675" rx="4.81482" ry="4.76675" fill="#F7F7F8"/>
<mask id="path-2-inside-1" fill="white">
<path d="M20 12.0999C20 13.4 19.7413 14.6874 19.2388 15.8885C18.7362 17.0897 17.9997 18.181 17.0711 19.1004C16.1425 20.0197 15.0401 20.7489 13.8268 21.2464C12.6136 21.744 11.3132 22 10 22C8.68678 22 7.38642 21.744 6.17317 21.2464C4.95991 20.7489 3.85752 20.0197 2.92893 19.1004C2.00035 18.181 1.26375 17.0897 0.761204 15.8885C0.258657 14.6874 -1.14805e-07 13.4 0 12.0999L10 12.0999H20Z"/>
</mask>
<path d="M20 12.0999C20 13.4 19.7413 14.6874 19.2388 15.8885C18.7362 17.0897 17.9997 18.181 17.0711 19.1004C16.1425 20.0197 15.0401 20.7489 13.8268 21.2464C12.6136 21.744 11.3132 22 10 22C8.68678 22 7.38642 21.744 6.17317 21.2464C4.95991 20.7489 3.85752 20.0197 2.92893 19.1004C2.00035 18.181 1.26375 17.0897 0.761204 15.8885C0.258657 14.6874 -1.14805e-07 13.4 0 12.0999L10 12.0999H20Z" stroke="#F7F7F8" stroke-width="4" mask="url(#path-2-inside-1)"/>
</svg>
