<svg width="36" height="30" viewBox="0 0 36 30" fill="none" xmlns="http://www.w3.org/2000/svg">
<path d="M36 3.55133C34.6753 4.15365 33.2519 4.56072 31.7579 4.74385C33.283 3.80656 34.454 2.32232 35.0054 0.553868C33.5556 1.43606 31.9694 2.05761 30.3154 2.39168C28.968 0.919845 27.0487 0 24.9242 0C20.8453 0 17.5382 3.39098 17.5382 7.57333C17.5382 8.16699 17.6036 8.74494 17.7294 9.29939C11.5912 8.98345 6.14897 5.96839 2.50608 1.38633C1.87045 2.50488 1.50623 3.80599 1.50623 5.19376C1.50623 7.82135 2.81025 10.1393 4.79194 11.4976C3.61905 11.4599 2.47197 11.1351 1.44647 10.5502C1.44605 10.5819 1.44605 10.6136 1.44605 10.6455C1.44605 14.3149 3.99192 17.376 7.37058 18.0717C6.28297 18.375 5.14213 18.4194 4.03523 18.2015C4.97503 21.2104 7.70273 23.3999 10.9346 23.4612C8.40684 25.4923 5.22211 26.7032 1.76189 26.7032C1.16564 26.7032 0.577828 26.6673 0 26.5973C3.26855 28.7462 7.15078 30 11.3217 30C24.9071 30 32.3359 18.4596 32.3359 8.45164C32.3359 8.12316 32.3288 7.79655 32.3145 7.47181C33.7605 6.39996 35.0085 5.07236 36 3.55133Z" fill="#55ACEE"/>
</svg>
