<svg width="26" height="26" viewBox="0 0 26 26" fill="none" xmlns="http://www.w3.org/2000/svg">
<path d="M0.8125 16.5875C0.895379 16.5875 0.974865 16.6204 1.03347 16.6791C1.09208 16.7377 1.125 16.8171 1.125 16.9V20.9625C1.125 21.5261 1.34888 22.0666 1.7474 22.4651C2.14591 22.8636 2.68642 23.0875 3.25 23.0875H22.75C23.3136 23.0875 23.8541 22.8636 24.2526 22.4651C24.6511 22.0666 24.875 21.5261 24.875 20.9625V16.9C24.875 16.8171 24.9079 16.7377 24.9665 16.6791C25.0251 16.6204 25.1046 16.5875 25.1875 16.5875C25.2704 16.5875 25.3499 16.6204 25.4085 16.6791C25.4671 16.7377 25.5 16.8171 25.5 16.9V20.9625C25.5 21.6919 25.2103 22.3913 24.6945 22.9071C24.1788 23.4228 23.4793 23.7125 22.75 23.7125H3.25C2.52065 23.7125 1.82118 23.4228 1.30546 22.9071C0.789731 22.3913 0.5 21.6919 0.5 20.9625V16.9C0.5 16.8171 0.532924 16.7377 0.591529 16.6791C0.650135 16.6204 0.729621 16.5875 0.8125 16.5875Z" fill="#13A3FD" stroke="#13A3FD"/>
<path d="M12.7784 2.21579L12.7788 2.21534C12.8078 2.18624 12.8423 2.16315 12.8803 2.1474C12.9182 2.13164 12.9589 2.12354 13.0001 2.12354C13.0412 2.12354 13.0819 2.13164 13.1198 2.1474C13.1578 2.16315 13.1923 2.18624 13.2213 2.21534L13.2217 2.21579L18.0967 7.09079C18.1555 7.14959 18.1886 7.22933 18.1886 7.31249C18.1886 7.39564 18.1555 7.47539 18.0967 7.53418C18.0379 7.59298 17.9582 7.62601 17.8751 7.62601C17.7919 7.62601 17.7122 7.59298 17.6534 7.53418L14.1662 4.04539L13.3126 3.19136V4.39886V18.6875C13.3126 18.7704 13.2796 18.8499 13.221 18.9085C13.1624 18.9671 13.0829 19 13.0001 19C12.9172 19 12.8377 18.9671 12.7791 18.9085C12.7205 18.8499 12.6876 18.7704 12.6876 18.6875V4.39886V3.19136L11.8339 4.04539L8.34675 7.53418C8.31763 7.5633 8.28307 7.58639 8.24503 7.60215C8.207 7.6179 8.16623 7.62601 8.12505 7.62601C8.08388 7.62601 8.04311 7.6179 8.00507 7.60215C7.96703 7.58639 7.93247 7.5633 7.90335 7.53418C7.87424 7.50507 7.85115 7.47051 7.83539 7.43247C7.81963 7.39443 7.81152 7.35366 7.81152 7.31249C7.81152 7.27131 7.81963 7.23055 7.83539 7.19251L7.37345 7.00116L7.83539 7.19251C7.85115 7.15447 7.87424 7.1199 7.90335 7.09079L12.7784 2.21579Z" fill="#13A3FD" stroke="#13A3FD"/>
</svg>
