<svg width="24" height="24" viewBox="0 0 24 24" fill="none" xmlns="http://www.w3.org/2000/svg">
<path d="M3.21799 7.09204L4.10899 7.54603L3.21799 7.09204ZM4.0918 6.21799L4.54579 7.10899L4.0918 6.21799ZM4.0918 17.782L4.54579 16.891H4.54579L4.0918 17.782ZM3.21799 16.908L2.32698 17.362H2.32698L3.21799 16.908ZM20.7822 16.908L19.8912 16.454L20.7822 16.908ZM19.9078 17.782L19.4538 16.891L19.9078 17.782ZM20.7822 7.09204L19.8912 7.54603V7.54603L20.7822 7.09204ZM19.9078 6.21799L20.3618 5.32698V5.32698L19.9078 6.21799ZM11 18C11 18.5523 11.4477 19 12 19C12.5523 19 13 18.5523 13 18H11ZM5 18C5 18.5523 5.44772 19 6 19C6.55228 19 7 18.5523 7 18H5ZM18 15C18.5523 15 19 14.5523 19 14C19 13.4477 18.5523 13 18 13V15ZM14 13C13.4477 13 13 13.4477 13 14C13 14.5523 13.4477 15 14 15V13ZM18 12C18.5523 12 19 11.5523 19 11C19 10.4477 18.5523 10 18 10V12ZM15 10C14.4477 10 14 10.4477 14 11C14 11.5523 14.4477 12 15 12V10ZM9 12C8.44772 12 8 11.5523 8 11H6C6 12.6569 7.34315 14 9 14V12ZM8 11C8 10.4477 8.44772 10 9 10V8C7.34315 8 6 9.34315 6 11H8ZM9 10C9.55228 10 10 10.4477 10 11H12C12 9.34315 10.6569 8 9 8V10ZM10 11C10 11.5523 9.55228 12 9 12V14C10.6569 14 12 12.6569 12 11H10ZM20 9.19995V14.8H22V9.19995H20ZM17.8002 17H6.2002V19H17.8002V17ZM4 14.8V9.19995H2V14.8H4ZM6.2002 7H17.8002V5H6.2002V7ZM4 9.19995C4 8.6234 4.00078 8.25114 4.02393 7.96783C4.04612 7.6962 4.0838 7.59549 4.10899 7.54603L2.32698 6.63805C2.13419 7.01642 2.06287 7.40961 2.03057 7.80495C1.99922 8.18861 2 8.6564 2 9.19995H4ZM6.2002 5C5.65663 5 5.18874 4.99922 4.80498 5.03057C4.40962 5.06286 4.01624 5.13416 3.63781 5.32698L4.54579 7.10899C4.59517 7.08383 4.69595 7.04613 4.9678 7.02393C5.25126 7.00078 5.62365 7 6.2002 7V5ZM4.10899 7.54603C4.205 7.35761 4.35788 7.20474 4.54579 7.10899L3.63781 5.32698C3.07306 5.61473 2.61447 6.07382 2.32698 6.63805L4.10899 7.54603ZM6.2002 17C5.62367 17 5.25127 16.9992 4.96782 16.9761C4.69598 16.9538 4.59519 16.9161 4.54579 16.891L3.63781 18.673C4.01623 18.8658 4.40959 18.9371 4.80496 18.9694C5.18873 19.0008 5.65662 19 6.2002 19V17ZM2 14.8C2 15.3435 1.99922 15.8113 2.03057 16.195C2.06287 16.5904 2.13418 16.9836 2.32698 17.362L4.10899 16.454C4.08381 16.4046 4.04613 16.3039 4.02393 16.0322C4.00078 15.7488 4 15.3765 4 14.8H2ZM4.54579 16.891C4.35778 16.7952 4.20494 16.6424 4.10899 16.454L2.32698 17.362C2.61452 17.9264 3.07317 18.3853 3.63781 18.673L4.54579 16.891ZM20 14.8C20 15.3766 19.9993 15.7489 19.9762 16.0323C19.954 16.3041 19.9163 16.4047 19.8912 16.454L21.6732 17.362C21.8661 16.9835 21.9373 16.5902 21.9696 16.1949C22.0008 15.8112 22 15.3434 22 14.8H20ZM17.8002 19C18.3438 19 18.8115 19.0008 19.1951 18.9694C19.5904 18.9371 19.9835 18.8657 20.3618 18.673L19.4538 16.891C19.4043 16.9162 19.3036 16.9539 19.0321 16.9761C18.7489 16.9992 18.3767 17 17.8002 17V19ZM19.8912 16.454C19.7956 16.6417 19.6425 16.7948 19.4538 16.891L20.3618 18.673C20.9257 18.3856 21.3854 17.927 21.6732 17.362L19.8912 16.454ZM22 9.19995C22 8.6565 22.0008 8.1887 21.9695 7.80511C21.9373 7.40983 21.8661 7.01653 21.6732 6.63805L19.8912 7.54603C19.9164 7.59537 19.954 7.69598 19.9762 7.96767C19.9993 8.25105 20 8.6233 20 9.19995H22ZM17.8002 7C18.3768 7 18.7489 7.00078 19.0321 7.02393C19.3036 7.04611 19.4043 7.08377 19.4538 7.10899L20.3618 5.32698C19.9835 5.13421 19.5904 5.06288 19.1951 5.03057C18.8115 4.99922 18.3437 5 17.8002 5V7ZM21.6732 6.63805C21.3854 6.07316 20.9259 5.61439 20.3618 5.32698L19.4538 7.10899C19.6424 7.20507 19.7956 7.35828 19.8912 7.54603L21.6732 6.63805ZM13 18C13 17.0093 12.3977 16.2349 11.676 15.7537C10.9474 15.268 9.99832 15 9 15V17C9.65854 17 10.2095 17.1798 10.5666 17.4178C10.9307 17.6606 11 17.8861 11 18H13ZM9 15C8.00168 15 7.05265 15.268 6.32398 15.7537C5.6023 16.2349 5 17.0093 5 18H7C7 17.8861 7.06927 17.6606 7.43338 17.4178C7.7905 17.1798 8.34146 17 9 17V15ZM18 13L14 13V15L18 15V13ZM18 10L15 10V12L18 12V10Z" fill="#F7F7F7"/>
</svg>
