<svg width="24" height="24" viewBox="0 0 24 24" fill="none" xmlns="http://www.w3.org/2000/svg">
<path d="M16.25 20C16.25 20.4142 16.5858 20.75 17 20.75C17.4142 20.75 17.75 20.4142 17.75 20H16.25ZM6.25 20C6.25 20.4142 6.58579 20.75 7 20.75C7.41421 20.75 7.75 20.4142 7.75 20H6.25ZM20.25 16.9999C20.25 17.4141 20.5858 17.7499 21 17.7499C21.4142 17.7499 21.75 17.4141 21.75 16.9999H20.25ZM18.1902 13.524C17.7895 13.419 17.3796 13.6587 17.2745 14.0593C17.1695 14.46 17.4091 14.87 17.8098 14.975L18.1902 13.524ZM2.25 16.9999C2.25 17.4141 2.58579 17.7499 3 17.7499C3.41421 17.7499 3.75 17.4141 3.75 16.9999H2.25ZM6.19019 14.975C6.59086 14.87 6.83052 14.46 6.72549 14.0593C6.62045 13.6587 6.21049 13.419 5.80981 13.524L6.19019 14.975ZM17.4998 9.67726C17.1912 9.9535 17.1649 10.4276 17.4411 10.7363C17.7174 11.0449 18.1915 11.0712 18.5002 10.795L17.4998 9.67726ZM13.4998 5.20504C13.1912 5.48129 13.1649 5.95543 13.4411 6.26408C13.7174 6.57272 14.1915 6.59899 14.5002 6.32274L13.4998 5.20504ZM5.49981 10.795C5.80846 11.0712 6.28261 11.0449 6.55885 10.7363C6.8351 10.4276 6.80883 9.9535 6.50019 9.67726L5.49981 10.795ZM9.49981 6.32274C9.80846 6.59899 10.2826 6.57272 10.5589 6.26408C10.8351 5.95543 10.8088 5.48129 10.5002 5.20504L9.49981 6.32274ZM17.75 20C17.75 18.8046 16.9464 17.8506 15.9214 17.2356C14.8815 16.6116 13.4933 16.25 12 16.25V17.75C13.2682 17.75 14.3799 18.06 15.1497 18.5218C15.9343 18.9926 16.25 19.5385 16.25 20H17.75ZM12 16.25C10.5067 16.25 9.11851 16.6116 8.07859 17.2356C7.05361 17.8506 6.25 18.8046 6.25 20H7.75C7.75 19.5385 8.06568 18.9926 8.85034 18.5218C9.62007 18.06 10.7318 17.75 12 17.75V16.25ZM21.75 16.9999C21.75 16.1158 21.3039 15.355 20.6637 14.7793C20.0256 14.2055 19.1597 13.7782 18.1902 13.524L17.8098 14.975C18.6062 15.1838 19.2403 15.5166 19.6607 15.8946C20.0791 16.2709 20.25 16.6537 20.25 16.9999H21.75ZM3.75 16.9999C3.75 16.6537 3.9209 16.2709 4.33929 15.8946C4.75971 15.5166 5.39384 15.1838 6.19019 14.975L5.80981 13.524C4.84025 13.7782 3.97439 14.2055 3.33629 14.7793C2.69614 15.355 2.25 16.1158 2.25 16.9999H3.75ZM12 13.25C10.7574 13.25 9.75 12.2426 9.75 11H8.25C8.25 13.0711 9.92893 14.75 12 14.75V13.25ZM9.75 11C9.75 9.75736 10.7574 8.75 12 8.75V7.25C9.92893 7.25 8.25 8.92893 8.25 11H9.75ZM12 8.75C13.2426 8.75 14.25 9.75736 14.25 11H15.75C15.75 8.92893 14.0711 7.25 12 7.25V8.75ZM14.25 11C14.25 12.2426 13.2426 13.25 12 13.25V14.75C14.0711 14.75 15.75 13.0711 15.75 11H14.25ZM18.5002 10.795C19.2662 10.1094 19.75 9.1107 19.75 8H18.25C18.25 8.6663 17.9613 9.26419 17.4998 9.67726L18.5002 10.795ZM19.75 8C19.75 5.92893 18.0711 4.25 16 4.25V5.75C17.2426 5.75 18.25 6.75736 18.25 8H19.75ZM16 4.25C15.04 4.25 14.1628 4.61169 13.4998 5.20504L14.5002 6.32274C14.8988 5.96602 15.4233 5.75 16 5.75V4.25ZM6.50019 9.67726C6.03868 9.26419 5.75 8.6663 5.75 8H4.25C4.25 9.1107 4.73383 10.1094 5.49981 10.795L6.50019 9.67726ZM5.75 8C5.75 6.75736 6.75736 5.75 8 5.75V4.25C5.92893 4.25 4.25 5.92893 4.25 8H5.75ZM8 5.75C8.57675 5.75 9.10125 5.96602 9.49981 6.32274L10.5002 5.20504C9.83724 4.61169 8.95996 4.25 8 4.25V5.75Z" fill="#989898"/>
</svg>
