<svg width="56" height="57" viewBox="0 0 56 57" fill="none" xmlns="http://www.w3.org/2000/svg">
<path d="M32.6667 46.0749H33.6667H32.6667ZM32.6667 25.324H31.6667H32.6667ZM31.5735 22.637L32.2868 21.9362L31.5735 22.637ZM24.4271 15.363L23.7137 16.0638L24.4271 15.363ZM10.7324 49.875V48.875V49.875ZM28.9324 49.875V50.875V49.875ZM7.25432 48.5783L8.14854 48.1306H8.14854L7.25432 48.5783ZM8.27376 49.6161L8.73415 48.7284L8.27376 49.6161ZM8.27376 14.5089L7.81337 13.6211H7.81337L8.27376 14.5089ZM7.25432 15.5468L6.3601 15.0992H6.3601L7.25432 15.5468ZM23.5863 14.5999L23.057 15.4484L23.5863 14.5999ZM22.9107 14.3156L22.6734 15.287L22.9107 14.3156ZM32.6029 24.1794L31.6296 24.4089L32.6029 24.1794ZM32.3225 23.4928L33.1793 22.977L32.3225 23.4928ZM32.4115 48.5783L33.3057 49.0259L32.4115 48.5783ZM31.3936 49.6161L30.9332 48.7284L31.3936 49.6161ZM22.3333 14.2499C22.3333 14.8022 22.781 15.2499 23.3333 15.2499C23.8856 15.2499 24.3333 14.8022 24.3333 14.2499H22.3333ZM40.7604 8.23799L40.0471 8.93881V8.93881L40.7604 8.23799ZM47.9068 15.512L48.6202 14.8112L47.9068 15.512ZM49 18.199H48H49ZM49 38.9499H50H49ZM32.6667 41.75C32.1144 41.75 31.6667 42.1977 31.6667 42.75C31.6667 43.3023 32.1144 43.75 32.6667 43.75V41.75ZM48.7448 41.4533L47.8506 41.0057L48.7448 41.4533ZM47.7269 42.4911L47.2665 41.6034L47.7269 42.4911ZM48.6559 16.3678L49.5126 15.852L48.6559 16.3678ZM48.9362 17.0544L47.9629 17.2839L48.9362 17.0544ZM39.2441 7.19062L39.0067 8.16204L39.0067 8.16204L39.2441 7.19062ZM39.9196 7.47493L39.3904 8.32341L39.9196 7.47493ZM23.5877 8.4218L24.4819 8.86943V8.86943L23.5877 8.4218ZM24.6071 7.38386L24.1467 6.49614V6.49614L24.6071 7.38386ZM32.6658 27.125C33.218 27.125 33.6658 26.6773 33.6658 26.125C33.6658 25.5727 33.218 25.125 32.6658 25.125V27.125ZM24.7324 26.125V25.125V26.125ZM22 14.25C22 13.6977 21.5523 13.25 21 13.25C20.4477 13.25 20 13.6977 20 14.25H22ZM22.2738 25.8661L21.8134 26.7538L22.2738 25.8661ZM21.2543 24.8283L22.1485 24.3807L21.2543 24.8283ZM48.9991 20C49.5514 20 49.9991 19.5523 49.9991 19C49.9991 18.4477 49.5514 18 48.9991 18V20ZM41.0658 19V18V19ZM38.3333 7.125C38.3333 6.57272 37.8856 6.125 37.3333 6.125C36.781 6.125 36.3333 6.57272 36.3333 7.125H38.3333ZM38.6071 18.7411L38.1467 19.6288L38.6071 18.7411ZM37.5877 17.7033L38.4819 17.2557L38.4819 17.2557L37.5877 17.7033ZM33.6667 46.0749V25.324H31.6667V46.0749H33.6667ZM32.2868 21.9362L25.1404 14.6622L23.7137 16.0638L30.8601 23.3378L32.2868 21.9362ZM21.786 13.25H10.7324V15.25H21.786V13.25ZM6 18.0499V46.0749H8V18.0499H6ZM10.7324 50.875H28.9324V48.875H10.7324V50.875ZM6 46.0749C6 46.7238 5.99925 47.2695 6.035 47.7149C6.07164 48.1714 6.15139 48.609 6.3601 49.0259L8.14854 48.1306C8.10292 48.0395 8.05552 47.8905 8.02858 47.5549C8.00075 47.2081 8 46.7562 8 46.0749H6ZM10.7324 48.875C10.0622 48.875 9.62099 48.8742 9.28315 48.8461C8.9576 48.819 8.8178 48.7718 8.73415 48.7284L7.81337 50.5038C8.22886 50.7193 8.66498 50.8015 9.11729 50.8392C9.5573 50.8758 10.0958 50.875 10.7324 50.875L10.7324 48.875ZM6.3601 49.0259C6.67718 49.6593 7.18463 50.1777 7.81337 50.5038L8.73415 48.7284C8.4848 48.5991 8.27886 48.391 8.14854 48.1306L6.3601 49.0259ZM10.7324 13.25C10.0958 13.25 9.55731 13.2492 9.11731 13.2858C8.66501 13.3234 8.22887 13.4057 7.81337 13.6211L8.73415 15.3966C8.81778 15.3532 8.95757 15.306 9.28313 15.2789C9.62098 15.2508 10.0622 15.25 10.7324 15.25V13.25ZM8 18.0499C8 17.3687 8.00075 16.9168 8.02858 16.5701C8.05552 16.2346 8.10291 16.0856 8.14854 15.9944L6.3601 15.0992C6.1514 15.5161 6.07164 15.9536 6.035 16.4101C5.99925 16.8554 6 17.4011 6 18.0499H8ZM7.81337 13.6211C7.18453 13.9473 6.67713 14.4658 6.3601 15.0992L8.14854 15.9944C8.27891 15.734 8.48491 15.5258 8.73415 15.3966L7.81337 13.6211ZM25.1404 14.6622C24.7706 14.2858 24.4753 13.9759 24.1155 13.7515L23.057 15.4484C23.1681 15.5177 23.2764 15.6187 23.7137 16.0638L25.1404 14.6622ZM21.786 15.25C22.4051 15.25 22.549 15.2566 22.6734 15.287L23.1481 13.3442C22.7354 13.2434 22.3084 13.25 21.786 13.25V15.25ZM24.1155 13.7515C23.8159 13.5646 23.4886 13.4274 23.1481 13.3442L22.6734 15.287C22.8091 15.3202 22.9391 15.3749 23.057 15.4484L24.1155 13.7515ZM33.6667 25.324C33.6667 24.7919 33.6737 24.3632 33.5762 23.9498L31.6296 24.4089C31.661 24.5422 31.6667 24.6942 31.6667 25.324H33.6667ZM30.8601 23.3378C31.2958 23.7812 31.3963 23.8931 31.4658 24.0086L33.1793 22.977C32.9602 22.6133 32.6583 22.3143 32.2868 21.9362L30.8601 23.3378ZM33.5762 23.9498C33.4948 23.6047 33.3596 23.2767 33.1793 22.977L31.4658 24.0086C31.5413 24.134 31.5966 24.2694 31.6296 24.4089L33.5762 23.9498ZM31.6667 46.0749C31.6667 46.7559 31.6657 47.2078 31.6377 47.5543C31.6106 47.8898 31.563 48.0391 31.5172 48.1307L33.3057 49.0259C33.5142 48.6094 33.5943 48.1722 33.6312 47.7155C33.6672 47.2699 33.6667 46.7241 33.6667 46.0749H31.6667ZM28.9324 50.875C29.5691 50.875 30.1081 50.8758 30.5487 50.8392C31.0012 50.8016 31.4382 50.7195 31.8539 50.5038L30.9332 48.7284C30.8498 48.7716 30.7096 48.8189 30.3831 48.8461C30.0445 48.8742 29.6026 48.875 28.9324 48.875V50.875ZM31.5172 48.1307C31.3862 48.3924 31.1811 48.5998 30.9332 48.7284L31.8539 50.5038C32.4841 50.177 32.9893 49.6579 33.3057 49.0259L31.5172 48.1307ZM24.3333 14.2499V10.9249H22.3333V14.2499H24.3333ZM27.0658 8.125H38.1194V6.125H27.0658V8.125ZM40.0471 8.93881L47.1935 16.2128L48.6202 14.8112L41.4738 7.53717L40.0471 8.93881ZM48 18.199V38.9499H50V18.199H48ZM45.2667 41.75H32.6667V43.75H45.2667V41.75ZM48 38.9499C48 39.6309 47.999 40.0828 47.971 40.4293C47.9439 40.7648 47.8964 40.9141 47.8506 41.0057L49.639 41.9009C49.8475 41.4844 49.9276 41.0472 49.9645 40.5905C50.0005 40.1449 50 39.5991 50 38.9499H48ZM45.2667 43.75C45.9033 43.75 46.4422 43.7508 46.8825 43.7142C47.3349 43.6766 47.7716 43.5944 48.1873 43.3788L47.2665 41.6034C47.183 41.6467 47.043 41.6939 46.7168 41.7211C46.3785 41.7492 45.9368 41.75 45.2667 41.75V43.75ZM47.8506 41.0057C47.7195 41.2674 47.5145 41.4748 47.2665 41.6034L48.1873 43.3788C48.8174 43.052 49.3226 42.5329 49.639 41.9009L47.8506 41.0057ZM47.1935 16.2128C47.6291 16.6562 47.7296 16.768 47.7992 16.8836L49.5126 15.852C49.2936 15.4882 48.9916 15.1893 48.6202 14.8112L47.1935 16.2128ZM50 18.199C50 17.6669 50.007 17.2382 49.9095 16.8248L47.9629 17.2839C47.9943 17.4172 48 17.5692 48 18.199H50ZM47.7992 16.8836C47.8746 17.009 47.93 17.1444 47.9629 17.2839L49.9095 16.8248C49.8281 16.4797 49.693 16.1517 49.5126 15.852L47.7992 16.8836ZM38.1194 8.125C38.7385 8.125 38.8823 8.13165 39.0067 8.16204L39.4815 6.2192C39.0688 6.11835 38.6417 6.125 38.1194 6.125V8.125ZM41.4738 7.53717C41.104 7.16078 40.8087 6.85089 40.4488 6.62645L39.3904 8.32341C39.5015 8.39271 39.6098 8.49368 40.0471 8.93881L41.4738 7.53717ZM39.0067 8.16204C39.1424 8.1952 39.2724 8.24986 39.3904 8.32341L40.4488 6.62645C40.1492 6.43957 39.8219 6.3024 39.4815 6.2192L39.0067 8.16204ZM24.3333 10.9249C24.3333 10.2437 24.3341 9.79182 24.3619 9.44511C24.3889 9.10956 24.4362 8.96057 24.4819 8.86943L22.6934 7.97417C22.4847 8.39107 22.405 8.82858 22.3683 9.28507C22.3326 9.73039 22.3333 10.2761 22.3333 10.9249H24.3333ZM27.0658 6.125C26.4292 6.125 25.8906 6.12419 25.4506 6.1608C24.9983 6.19843 24.5622 6.28065 24.1467 6.49614L25.0675 8.27158C25.1511 8.22821 25.2909 8.181 25.6165 8.15391C25.9543 8.12581 26.3956 8.125 27.0658 8.125V6.125ZM24.4819 8.86943C24.6122 8.60898 24.8182 8.40084 25.0675 8.27158L24.1467 6.49614C23.5179 6.82228 23.0105 7.34085 22.6934 7.97417L24.4819 8.86943ZM32.6658 25.125H24.7324V27.125H32.6658V25.125ZM22 22.325V14.25H20V22.325H22ZM24.7324 25.125C24.0622 25.125 23.621 25.1242 23.2832 25.0961C22.9576 25.069 22.8178 25.0218 22.7342 24.9784L21.8134 26.7538C22.2289 26.9693 22.665 27.0515 23.1173 27.0892C23.5573 27.1258 24.0958 27.125 24.7324 27.125V25.125ZM20 22.325C20 22.9738 19.9992 23.5196 20.035 23.9649C20.0716 24.4214 20.1514 24.859 20.3601 25.2759L22.1485 24.3807C22.1029 24.2895 22.0555 24.1405 22.0286 23.8049C22.0008 23.4582 22 23.0063 22 22.325H20ZM22.7342 24.9784C22.4848 24.8491 22.2789 24.641 22.1485 24.3807L20.3601 25.2759C20.6772 25.9093 21.1846 26.4277 21.8134 26.7538L22.7342 24.9784ZM48.9991 18H41.0658V20H48.9991V18ZM38.3333 15.2V7.125H36.3333V15.2H38.3333ZM41.0658 18C40.3956 18 39.9543 17.9992 39.6165 17.9711C39.2909 17.944 39.1511 17.8968 39.0675 17.8534L38.1467 19.6288C38.5622 19.8443 38.9983 19.9265 39.4506 19.9642C39.8906 20.0008 40.4291 20 41.0658 20V18ZM36.3333 15.2C36.3333 15.8488 36.3326 16.3946 36.3683 16.8399C36.405 17.2964 36.4847 17.734 36.6934 18.1509L38.4819 17.2557C38.4363 17.1645 38.3889 17.0155 38.3619 16.6799C38.3341 16.3332 38.3333 15.8813 38.3333 15.2H36.3333ZM39.0675 17.8534C38.8181 17.7241 38.6122 17.516 38.4819 17.2557L36.6934 18.1509C37.0105 18.7843 37.518 19.3027 38.1467 19.6288L39.0675 17.8534Z" fill="#13A3FD"/>
</svg>
