<svg width="52" height="10" viewBox="0 0 52 10" fill="none" xmlns="http://www.w3.org/2000/svg">
<g clip-path="url(#clip0_133_1393)">
<path d="M8.4805 0.78125C8.55799 0.855248 8.63031 0.932687 8.69746 1.01185L8.68369 0.994638C8.61998 0.91892 8.5511 0.848364 8.4805 0.78125ZM3.72457 1.75354L0.673338 5.33812C-0.337426 6.52553 -0.192785 8.31352 0.995337 9.32539C1.50502 9.76077 2.15591 9.99997 2.82745 9.99997C3.65914 9.99997 4.44433 9.63687 4.98329 9.00531L6.41592 7.32401L5.39655 6.12973L3.80378 8.00032C3.55927 8.28598 3.20455 8.45119 2.82745 8.45119C2.61394 8.45119 2.29538 8.39784 1.99921 8.14659C1.7392 7.9246 1.58079 7.61484 1.55324 7.27411C1.52569 6.93337 1.63244 6.60297 1.85457 6.34311L3.79345 4.0664C3.70046 3.86161 3.62987 3.64651 3.58682 3.42623C3.57304 3.35224 3.56099 3.27824 3.55066 3.20424C3.54549 3.16982 3.54205 3.13541 3.5386 3.10099C3.5386 3.08894 3.53688 3.07518 3.53516 3.06141C3.53344 3.02699 3.52999 2.99085 3.52999 2.95471C3.52655 2.87383 3.52655 2.79295 3.52999 2.71035C3.52999 2.67077 3.53344 2.62947 3.53688 2.58817C3.5386 2.55547 3.54205 2.52277 3.54549 2.49008C3.54721 2.48664 3.54721 2.48319 3.54721 2.47975C3.55238 2.44189 3.55755 2.40403 3.56271 2.3679C3.59371 2.15623 3.64881 1.95144 3.72457 1.75354ZM5.75471 1.80861C5.73749 1.82066 5.72199 1.83442 5.7065 1.84819C5.72371 1.83442 5.73921 1.82066 5.75471 1.80861ZM5.7065 1.84819C5.7065 1.84819 5.70133 1.85163 5.69961 1.85335C5.691 1.86024 5.68239 1.86712 5.6755 1.87573C5.68583 1.8654 5.69616 1.8568 5.7065 1.84819ZM7.47662 1.97037C7.48695 1.9807 7.49729 1.99275 7.50762 2.00479L7.50417 1.99963C7.49556 1.9893 7.48695 1.9807 7.47662 1.97037ZM5.5808 1.97037C5.57046 1.9807 5.56185 1.9893 5.55324 1.99963L5.5498 2.00479C5.56013 1.99275 5.57046 1.98242 5.5808 1.97037ZM7.50762 2.00479L7.53345 2.03577C7.52484 2.02544 7.51623 2.01512 7.50762 2.00479ZM5.54808 2.00479C5.53947 2.01512 5.53086 2.02544 5.52225 2.03577L5.54808 2.00479ZM9.35351 2.71035C9.35351 2.71895 9.35351 2.72928 9.35351 2.73788C9.35351 2.72756 9.35351 2.71895 9.35351 2.71035ZM9.35523 2.73788C9.35868 2.81532 9.35523 2.89276 9.35523 2.9702C9.35868 2.92374 9.3604 2.87555 9.3604 2.82909C9.3604 2.79811 9.35868 2.76886 9.35695 2.73788H9.35523Z" fill="#1D2A31"/>
<path d="M6.52768 0C6.48635 0 6.4433 0.00172087 6.40198 0.00344175C6.36237 0.00516262 6.32277 0.0068835 6.28144 0.0120461C6.28144 0.0120461 6.27972 0.0120461 6.278 0.0120461C6.27628 0.0120461 6.27283 0.0120461 6.27111 0.0120461C6.24012 0.013767 6.2074 0.0189296 6.17468 0.0240922C6.15747 0.0240922 6.14025 0.0258131 6.12303 0.0309757C6.09548 0.0309757 6.06965 0.0378592 6.0421 0.0430219C5.91468 0.0636723 5.78898 0.0946481 5.66672 0.134228C5.63228 0.144553 5.59956 0.1566 5.56513 0.168646C5.55652 0.172087 5.54791 0.175529 5.5393 0.178971C5.5083 0.189296 5.47559 0.203063 5.44459 0.215109C5.39121 0.237481 5.33956 0.261573 5.2879 0.285665C5.22419 0.316641 5.16392 0.349337 5.10365 0.385476C5.06749 0.406126 5.03133 0.426777 4.99689 0.450869C4.96246 0.47324 4.92802 0.495612 4.89358 0.519704C4.85914 0.543796 4.82643 0.569609 4.79199 0.595422C4.75927 0.621236 4.72828 0.647049 4.69556 0.674583C4.65251 0.710721 4.61119 0.74858 4.56986 0.78816L4.48549 0.872483C4.03434 1.34056 3.76228 1.94459 3.7089 2.60196C3.67102 3.05971 3.74506 3.50886 3.91725 3.92187C3.94136 3.97866 3.96891 4.03717 3.99646 4.09224C4.09806 4.2953 4.22376 4.4846 4.37356 4.66185L5.3981 5.86302L5.51003 5.99553L6.52768 7.19153L6.54145 7.20702L6.64132 7.32404L8.07396 9.00533C8.61119 9.6369 9.39811 10 10.2298 10C10.8996 10 11.5505 9.7608 12.0619 9.32542C13.25 8.31354 13.3947 6.52556 12.3822 5.33815L9.32923 1.75357C9.61335 2.49527 9.59613 3.32989 9.2638 4.06643L11.2027 6.34314C11.4248 6.60299 11.5316 6.9334 11.504 7.27414C11.4765 7.61487 11.318 7.92463 11.058 8.14662C10.7619 8.39787 10.4433 8.45121 10.2298 8.45121C9.85269 8.45121 9.49626 8.28601 9.25347 8.00034L7.65897 6.12803L7.56083 6.01101L7.54705 5.99553L6.5294 4.79952L6.41575 4.66873L5.55479 3.65686C5.33267 3.39701 5.22591 3.0666 5.25346 2.72586C5.2569 2.68112 5.26207 2.6381 5.2724 2.59508C5.30856 2.38857 5.39466 2.19756 5.5238 2.03579L5.55307 1.99966C5.56168 1.98933 5.57029 1.98073 5.58062 1.9704C5.5944 1.95319 5.6099 1.93598 5.62712 1.9205C5.64261 1.90501 5.65811 1.88952 5.67533 1.87575C5.68222 1.86715 5.69083 1.86027 5.69944 1.85338C5.71838 1.83789 5.73732 1.82241 5.75454 1.80864C5.78037 1.78971 5.80447 1.7725 5.8303 1.75701C5.85269 1.74152 5.87507 1.72776 5.89746 1.71571C5.92501 1.6985 5.95256 1.68474 5.98011 1.67097C5.99733 1.66236 6.01627 1.65376 6.03521 1.64688C6.05243 1.63999 6.07137 1.63139 6.09031 1.62623C6.1127 1.61762 6.13508 1.60902 6.15746 1.60385C6.18846 1.59353 6.21945 1.58665 6.24873 1.57976C6.27283 1.5746 6.29694 1.56944 6.31933 1.566C6.33482 1.56255 6.3486 1.56083 6.36237 1.55911C6.38992 1.55567 6.41575 1.55395 6.44158 1.55223C6.47085 1.55051 6.4984 1.54879 6.52423 1.54879H6.53112C6.55695 1.54879 6.5845 1.55051 6.61377 1.55223C6.6396 1.55395 6.66543 1.55567 6.69298 1.55911C6.70848 1.55911 6.72225 1.56427 6.73603 1.566C6.78941 1.5746 6.84451 1.58665 6.90305 1.60558C6.92544 1.61074 6.9461 1.61762 6.96676 1.62623C6.98398 1.63139 7.00292 1.63999 7.02187 1.64688C7.04081 1.65548 7.05975 1.66409 7.07697 1.67097C7.11141 1.68818 7.1424 1.70539 7.17512 1.72432C7.18373 1.72948 7.19234 1.73464 7.20095 1.7398C7.23538 1.76045 7.2681 1.78283 7.30082 1.80864H7.30254C7.33181 1.83101 7.35936 1.85338 7.38519 1.87919C7.40069 1.89124 7.41618 1.90673 7.42996 1.9205C7.44718 1.93598 7.46268 1.95319 7.47645 1.9704C7.48678 1.98073 7.49539 1.98933 7.504 1.99966L7.53327 2.03579C7.66242 2.19756 7.74851 2.38857 7.78467 2.59508C7.79501 2.6381 7.80017 2.68112 7.80362 2.72586C7.83117 3.0666 7.72441 3.39701 7.50228 3.65686L6.64132 4.66873L7.65897 5.86302L8.68179 4.66185C8.83332 4.48288 8.95902 4.29186 9.05889 4.09052C9.08816 4.03373 9.11399 3.97694 9.13982 3.92015C9.25175 3.6517 9.3189 3.37291 9.34473 3.09069C9.34817 3.05111 9.35162 3.00981 9.35334 2.97023C9.35678 2.88419 9.3585 2.79642 9.35334 2.71038V2.70693C9.35334 2.65875 9.34817 2.61057 9.34301 2.56238C9.34301 2.53485 9.33784 2.50731 9.3344 2.47978C9.32407 2.39546 9.30685 2.31113 9.28963 2.22681C9.27757 2.17174 9.2638 2.11668 9.25002 2.06333C9.14327 1.68474 8.95902 1.32507 8.69729 1.01187C8.63013 0.932714 8.55781 0.855274 8.48033 0.781277C8.37529 0.679745 8.26164 0.588539 8.14283 0.505937C8.11528 0.487007 8.08773 0.468078 8.06018 0.450869C8.02574 0.426777 7.98958 0.406126 7.95342 0.385476C7.8811 0.342454 7.80878 0.302874 7.73302 0.268456C7.69513 0.251248 7.65725 0.234039 7.61937 0.218551C7.58149 0.203063 7.54361 0.187575 7.504 0.173808C7.46612 0.15832 7.42652 0.146274 7.38691 0.134228C7.2681 0.0946481 7.14584 0.0653932 7.02014 0.0447427C6.98915 0.0378592 6.95816 0.0326966 6.92544 0.0292549C6.91166 0.0258131 6.89961 0.0240922 6.88411 0.0240922C6.8514 0.0189296 6.81696 0.013767 6.78252 0.0120461C6.78252 0.0120461 6.7808 0.0120461 6.77908 0.0120461C6.77908 0.0120461 6.77735 0.0120461 6.77563 0.0120461C6.73603 0.0068835 6.69642 0.00516262 6.6551 0.00344175C6.61377 0.00172087 6.57072 0 6.52768 0Z" fill="#1D2A31"/>
</g>
<path d="M16.7696 4.13693C16.7696 2.76711 17.8111 1.90735 19.4839 1.90735C21.2277 1.90735 22.2693 2.84335 22.2693 4.42352V7.86255H20.9489V6.34286C20.678 7.38403 19.8206 8.0203 18.6423 8.0203C17.4166 8.0203 16.5986 7.32882 16.5986 6.29027C16.5986 5.21229 17.4797 4.55761 18.9342 4.55761H20.9489V4.42352C20.9489 3.54799 20.3835 3.009 19.4576 3.009C18.516 3.009 18.0873 3.44808 18.0873 4.13693H16.7696ZM20.9489 5.4831H19.0079C18.2925 5.4831 17.9137 5.73025 17.9137 6.20088C17.9137 6.69517 18.3372 6.97124 19.0947 6.97124C20.173 6.97124 20.9489 6.41647 20.9489 5.64874V5.4831Z" fill="#1D2A31"/>
<path d="M24.3235 5.10186V7.86255H23.0031V2.0651H24.3235V3.99496C24.5628 2.79866 25.2361 2.0651 26.4144 2.0651H26.7195V3.31136H26.2856C24.7916 3.31136 24.3235 3.88453 24.3235 5.10186Z" fill="#1D2A31"/>
<path d="M28.3532 4.96251C28.3532 6.14566 28.9424 6.85293 29.9182 6.85293C30.7572 6.85293 31.1991 6.32182 31.3306 5.62508H32.6483C32.4721 7.00016 31.47 8.0203 29.9155 8.0203C28.2007 8.0203 27.0276 6.80297 27.0276 4.96251C27.0276 3.12205 28.198 1.90735 29.9155 1.90735C31.4726 1.90735 32.4721 2.92749 32.6483 4.30258H31.3306C31.2017 3.60583 30.7598 3.07473 29.9182 3.07473C28.9424 3.07473 28.3532 3.77936 28.3532 4.96251Z" fill="#1D2A31"/>
<path d="M33.2185 4.13693C33.2185 2.76711 34.26 1.90735 35.9328 1.90735C37.6766 1.90735 38.7181 2.84335 38.7181 4.42352V7.86255H37.3978V6.34286C37.1269 7.38403 36.2695 8.0203 35.0911 8.0203C33.8655 8.0203 33.0475 7.32882 33.0475 6.29027C33.0475 5.21229 33.9286 4.55761 35.3831 4.55761H37.3978V4.42352C37.3978 3.54799 36.8323 3.009 35.9065 3.009C34.9649 3.009 34.5362 3.44808 34.5362 4.13693H33.2185ZM37.3978 5.4831H35.4567C34.7413 5.4831 34.3626 5.73025 34.3626 6.20088C34.3626 6.69517 34.786 6.97124 35.5435 6.97124C36.6219 6.97124 37.3978 6.41647 37.3978 5.64874V5.4831Z" fill="#1D2A31"/>
<path d="M40.7723 4.77321V7.86255H39.452V2.0651H40.7723V3.77147C41.0353 2.58832 41.7876 1.90735 42.8686 1.90735C44.1521 1.90735 44.8859 2.8749 44.8859 4.55761V7.86255H43.5656V4.68907C43.5656 3.61372 43.1342 3.0721 42.2584 3.0721C41.322 3.0721 40.7723 3.68734 40.7723 4.77321Z" fill="#1D2A31"/>
<path d="M45.6296 4.13693C45.6296 2.76711 46.6711 1.90735 48.3439 1.90735C50.0877 1.90735 51.1293 2.84335 51.1293 4.42352V7.86255H49.8089V6.34286C49.538 7.38403 48.6806 8.0203 47.5023 8.0203C46.2766 8.0203 45.4586 7.32882 45.4586 6.29027C45.4586 5.21229 46.3397 4.55761 47.7942 4.55761H49.8089V4.42352C49.8089 3.54799 49.2434 3.009 48.3176 3.009C47.376 3.009 46.9473 3.44808 46.9473 4.13693H45.6296ZM49.8089 5.4831H47.8679C47.1525 5.4831 46.7737 5.73025 46.7737 6.20088C46.7737 6.69517 47.1972 6.97124 47.9547 6.97124C49.033 6.97124 49.8089 6.41647 49.8089 5.64874V5.4831Z" fill="#1D2A31"/>
<defs>
<clipPath id="clip0_133_1393">
<rect width="13.0556" height="10" fill="white"/>
</clipPath>
</defs>
</svg>
