<svg width="22" height="22" viewBox="0 0 22 22" fill="none" xmlns="http://www.w3.org/2000/svg">
<path d="M10.9995 11.8804C11.4855 11.8804 11.8795 11.4864 11.8795 11.0004C11.8795 10.5144 11.4855 10.1204 10.9995 10.1204C10.5135 10.1204 10.1195 10.5144 10.1195 11.0004C10.1195 11.4864 10.5135 11.8804 10.9995 11.8804Z" fill="#1D2A31"/>
<path d="M17.1595 11.8804C17.6455 11.8804 18.0395 11.4864 18.0395 11.0004C18.0395 10.5144 17.6455 10.1204 17.1595 10.1204C16.6735 10.1204 16.2795 10.5144 16.2795 11.0004C16.2795 11.4864 16.6735 11.8804 17.1595 11.8804Z" fill="#1D2A31"/>
<path d="M4.83947 11.8804C5.32548 11.8804 5.71947 11.4864 5.71947 11.0004C5.71947 10.5144 5.32548 10.1204 4.83947 10.1204C4.35346 10.1204 3.95947 10.5144 3.95947 11.0004C3.95947 11.4864 4.35346 11.8804 4.83947 11.8804Z" fill="#1D2A31"/>
<path d="M10.9995 11.8804C11.4855 11.8804 11.8795 11.4864 11.8795 11.0004C11.8795 10.5144 11.4855 10.1204 10.9995 10.1204C10.5135 10.1204 10.1195 10.5144 10.1195 11.0004C10.1195 11.4864 10.5135 11.8804 10.9995 11.8804Z" stroke="#1D2A31" stroke-width="1.32" stroke-linecap="round" stroke-linejoin="round"/>
<path d="M17.1595 11.8804C17.6455 11.8804 18.0395 11.4864 18.0395 11.0004C18.0395 10.5144 17.6455 10.1204 17.1595 10.1204C16.6735 10.1204 16.2795 10.5144 16.2795 11.0004C16.2795 11.4864 16.6735 11.8804 17.1595 11.8804Z" stroke="#1D2A31" stroke-width="1.32" stroke-linecap="round" stroke-linejoin="round"/>
<path d="M4.83947 11.8804C5.32548 11.8804 5.71947 11.4864 5.71947 11.0004C5.71947 10.5144 5.32548 10.1204 4.83947 10.1204C4.35346 10.1204 3.95947 10.5144 3.95947 11.0004C3.95947 11.4864 4.35346 11.8804 4.83947 11.8804Z" stroke="#1D2A31" stroke-width="1.32" stroke-linecap="round" stroke-linejoin="round"/>
</svg>
