<svg width="17" height="16" viewBox="0 0 17 16" fill="none" xmlns="http://www.w3.org/2000/svg">
<path d="M9.51982 5.56795C9.13821 5.84001 8.67121 6.00004 8.16683 6.00004C6.87817 6.00004 5.8335 4.95537 5.8335 3.66671C5.8335 2.37804 6.87817 1.33337 8.16683 1.33337C9.00215 1.33337 9.73496 1.77232 10.1472 2.43214M4.50016 13.3915H6.24036C6.46725 13.3915 6.69275 13.4185 6.9127 13.4725L8.75142 13.9193C9.15039 14.0165 9.56601 14.0259 9.96915 13.9476L12.0021 13.5521C12.5392 13.4475 13.0332 13.1903 13.4204 12.8137L14.8588 11.4145C15.2695 11.0156 15.2695 10.3683 14.8588 9.96875C14.4889 9.609 13.9033 9.5685 13.4849 9.87358L11.8086 11.0966C11.5685 11.2721 11.2764 11.3666 10.9759 11.3666H9.35716L10.3875 11.3665C10.9683 11.3665 11.4387 10.9089 11.4387 10.344V10.1395C11.4387 9.67037 11.1105 9.26135 10.6429 9.14795L9.05256 8.7612C8.79375 8.69843 8.5287 8.66671 8.26226 8.66671C7.61905 8.66671 6.45476 9.19925 6.45476 9.19925L4.50016 10.0166M13.8335 4.33337C13.8335 5.62204 12.7888 6.66671 11.5002 6.66671C10.2115 6.66671 9.16683 5.62204 9.16683 4.33337C9.16683 3.04471 10.2115 2.00004 11.5002 2.00004C12.7888 2.00004 13.8335 3.04471 13.8335 4.33337ZM1.8335 9.73337L1.8335 13.6C1.8335 13.9734 1.8335 14.1601 1.90616 14.3027C1.97007 14.4281 2.07206 14.5301 2.1975 14.594C2.34011 14.6667 2.52679 14.6667 2.90016 14.6667H3.4335C3.80686 14.6667 3.99355 14.6667 4.13616 14.594C4.2616 14.5301 4.36358 14.4281 4.4275 14.3027C4.50016 14.1601 4.50016 13.9734 4.50016 13.6V9.73337C4.50016 9.36001 4.50016 9.17332 4.4275 9.03071C4.36358 8.90527 4.2616 8.80329 4.13616 8.73937C3.99355 8.66671 3.80686 8.66671 3.4335 8.66671L2.90016 8.66671C2.52679 8.66671 2.34011 8.66671 2.1975 8.73937C2.07206 8.80329 1.97007 8.90527 1.90616 9.03071C1.8335 9.17332 1.8335 9.36001 1.8335 9.73337Z" stroke="currentColor" stroke-width="1.5" stroke-linecap="round" stroke-linejoin="round"/>
</svg>
