<svg width="20" height="20" viewBox="0 0 20 20" fill="none" xmlns="http://www.w3.org/2000/svg">
<path d="M8 8V6.6C8 6.03995 8 5.75992 8.10899 5.54601C8.20487 5.35785 8.35785 5.20487 8.54601 5.10899C8.75992 5 9.03995 5 9.6 5H13.4C13.9601 5 14.2401 5 14.454 5.10899C14.6422 5.20487 14.7951 5.35785 14.891 5.54601C15 5.75992 15 6.03995 15 6.6V10.4C15 10.9601 15 11.2401 14.891 11.454C14.7951 11.6422 14.6422 11.7951 14.454 11.891C14.2401 12 13.9601 12 13.4 12H12M6.6 15H10.4C10.9601 15 11.2401 15 11.454 14.891C11.6422 14.7951 11.7951 14.6422 11.891 14.454C12 14.2401 12 13.9601 12 13.4V9.6C12 9.03995 12 8.75992 11.891 8.54601C11.7951 8.35785 11.6422 8.20487 11.454 8.10899C11.2401 8 10.9601 8 10.4 8H6.6C6.03995 8 5.75992 8 5.54601 8.10899C5.35785 8.20487 5.20487 8.35785 5.10899 8.54601C5 8.75992 5 9.03995 5 9.6V13.4C5 13.9601 5 14.2401 5.10899 14.454C5.20487 14.6422 5.35785 14.7951 5.54601 14.891C5.75992 15 6.03995 15 6.6 15Z" stroke="currentColor" stroke-width="1.2" stroke-linecap="round" stroke-linejoin="round"/>
</svg>
