<svg width="22" height="22" viewBox="0 0 22 22" fill="none" xmlns="http://www.w3.org/2000/svg">
<path d="M10.9995 11.8805C11.4855 11.8805 11.8795 11.4865 11.8795 11.0005C11.8795 10.5145 11.4855 10.1205 10.9995 10.1205C10.5135 10.1205 10.1195 10.5145 10.1195 11.0005C10.1195 11.4865 10.5135 11.8805 10.9995 11.8805Z" fill="white"/>
<path d="M17.1595 11.8805C17.6455 11.8805 18.0395 11.4865 18.0395 11.0005C18.0395 10.5145 17.6455 10.1205 17.1595 10.1205C16.6735 10.1205 16.2795 10.5145 16.2795 11.0005C16.2795 11.4865 16.6735 11.8805 17.1595 11.8805Z" fill="white"/>
<path d="M4.83947 11.8805C5.32548 11.8805 5.71947 11.4865 5.71947 11.0005C5.71947 10.5145 5.32548 10.1205 4.83947 10.1205C4.35346 10.1205 3.95947 10.5145 3.95947 11.0005C3.95947 11.4865 4.35346 11.8805 4.83947 11.8805Z" fill="white"/>
<path d="M10.9995 11.8805C11.4855 11.8805 11.8795 11.4865 11.8795 11.0005C11.8795 10.5145 11.4855 10.1205 10.9995 10.1205C10.5135 10.1205 10.1195 10.5145 10.1195 11.0005C10.1195 11.4865 10.5135 11.8805 10.9995 11.8805Z" stroke="white" stroke-width="1.32" stroke-linecap="round" stroke-linejoin="round"/>
<path d="M17.1595 11.8805C17.6455 11.8805 18.0395 11.4865 18.0395 11.0005C18.0395 10.5145 17.6455 10.1205 17.1595 10.1205C16.6735 10.1205 16.2795 10.5145 16.2795 11.0005C16.2795 11.4865 16.6735 11.8805 17.1595 11.8805Z" stroke="white" stroke-width="1.32" stroke-linecap="round" stroke-linejoin="round"/>
<path d="M4.83947 11.8805C5.32548 11.8805 5.71947 11.4865 5.71947 11.0005C5.71947 10.5145 5.32548 10.1205 4.83947 10.1205C4.35346 10.1205 3.95947 10.5145 3.95947 11.0005C3.95947 11.4865 4.35346 11.8805 4.83947 11.8805Z" stroke="white" stroke-width="1.32" stroke-linecap="round" stroke-linejoin="round"/>
</svg>
