<svg width="24" height="24" viewBox="0 0 24 24" fill="none" xmlns="http://www.w3.org/2000/svg">
<path d="M13.9463 3.99997H9.34185C9.19827 3.99997 9.12648 3.99997 9.0631 4.02183C9.00705 4.04116 8.956 4.07272 8.91364 4.1142C8.86574 4.16112 8.83363 4.22533 8.76942 4.35375L5.40942 11.0738C5.25608 11.3804 5.1794 11.5338 5.19782 11.6584C5.2139 11.7673 5.27411 11.8647 5.36427 11.9278C5.46752 12 5.63897 12 5.98185 12H10.9463L8.54631 20L18.3008 9.88422C18.6299 9.54293 18.7944 9.37229 18.8041 9.22628C18.8124 9.09953 18.7601 8.97636 18.663 8.89439C18.5513 8.79997 18.3142 8.79997 17.8401 8.79997H12.1463L13.9463 3.99997Z" stroke="currentColor" stroke-width="1.5" stroke-linecap="round" stroke-linejoin="round"/>
<circle cx="19.5" cy="3.5" r="2.5" fill="#FA3636"/>
</svg>
