<svg width="24" height="24" viewBox="0 0 24 24" fill="none" xmlns="http://www.w3.org/2000/svg">
<path d="M19 20H20M16 20H14V17M17 17H20V14H19M14 14H16M4 17C4 16.0681 4 15.6022 4.15224 15.2346C4.35523 14.7446 4.74481 14.3552 5.23486 14.1522C5.60241 14 6.06835 14 7.00023 14C7.93211 14 8.39782 14 8.76537 14.1522C9.25542 14.3552 9.64467 14.7446 9.84766 15.2346C9.9999 15.6022 9.9999 16.0681 9.9999 17C9.9999 17.9319 9.9999 18.3978 9.84766 18.7654C9.64467 19.2554 9.25542 19.6448 8.76537 19.8478C8.39783 20 7.93211 20 7.00023 20C6.06835 20 5.6024 20 5.23486 19.8478C4.74481 19.6448 4.35523 19.2554 4.15224 18.7654C4 18.3978 4 17.9319 4 17ZM14 6.99999C14 6.0681 14 5.60216 14.1522 5.23462C14.3552 4.74456 14.7448 4.35523 15.2349 4.15224C15.6024 4 16.0683 4 17.0002 4C17.9321 4 18.3978 4 18.7654 4.15224C19.2554 4.35523 19.6447 4.74456 19.8477 5.23462C19.9999 5.60216 19.9999 6.06812 19.9999 7C19.9999 7.93188 19.9999 8.39783 19.8477 8.76537C19.6447 9.25542 19.2554 9.64479 18.7654 9.84778C18.3978 10 17.9321 10 17.0002 10C16.0683 10 15.6024 10 15.2349 9.84778C14.7448 9.64479 14.3552 9.25542 14.1522 8.76537C14 8.39782 14 7.93187 14 6.99999ZM4 6.99999C4 6.0681 4 5.60216 4.15224 5.23462C4.35523 4.74456 4.74481 4.35523 5.23486 4.15224C5.60241 4 6.06835 4 7.00023 4C7.93211 4 8.39782 4 8.76537 4.15224C9.25542 4.35523 9.64467 4.74456 9.84766 5.23462C9.9999 5.60216 9.9999 6.06812 9.9999 7C9.9999 7.93188 9.9999 8.39783 9.84766 8.76537C9.64467 9.25542 9.25542 9.64479 8.76537 9.84778C8.39783 10 7.93211 10 7.00023 10C6.06835 10 5.6024 10 5.23486 9.84778C4.74481 9.64479 4.35523 9.25542 4.15224 8.76537C4 8.39782 4 7.93187 4 6.99999Z" stroke="white" stroke-width="2" stroke-linecap="round" stroke-linejoin="round"/>
</svg>
