<svg width="20" height="20" viewBox="0 0 20 20" fill="none" xmlns="http://www.w3.org/2000/svg">
<path d="M8.58964 11.4103L12.6281 7.3718M16.7593 4.9072L13.3504 15.986C13.0448 16.9792 12.8921 17.4758 12.6285 17.6404C12.4 17.7832 12.1167 17.8067 11.8678 17.7034C11.5808 17.5843 11.3482 17.1196 10.8835 16.1902L8.72432 11.8719C8.65058 11.7244 8.61367 11.6507 8.56441 11.5868C8.5207 11.5301 8.47007 11.4792 8.41336 11.4355C8.34946 11.3862 8.27552 11.3494 8.12803 11.2756L3.80977 9.11649C2.88035 8.65178 2.4156 8.41952 2.29651 8.1325C2.19323 7.88359 2.21678 7.60002 2.35958 7.37147C2.52423 7.10794 3.02086 6.9552 4.01404 6.64961L15.0929 3.24074C15.8737 3.00049 16.2639 2.88035 16.5277 2.97717C16.7574 3.06151 16.9386 3.24255 17.0229 3.47227C17.1198 3.736 16.9995 4.12641 16.7593 4.9072Z" stroke="#F7F7F7" stroke-width="2" stroke-linecap="round" stroke-linejoin="round"/>
</svg>
