<?xml version="1.0" encoding="iso-8859-1"?><!-- Generator: Adobe Illustrator 22.1.0, SVG Export Plug-In . SVG Version: 6.00 Build 0)  --><svg xmlns="http://www.w3.org/2000/svg" xmlns:xlink="http://www.w3.org/1999/xlink" viewBox="0 0 24 24" width="24px" height="24px"><g id="Filled"><path d="M16.125,1c-1.153,0.067-2.477,0.71-3.264,1.528c-0.711,0.744-1.271,1.848-1.042,2.917c1.253,0.033,2.511-0.625,3.264-1.458C15.786,3.208,16.318,2.12,16.125,1z"/><g><path d="M16.194,5.444c-1.809,0-2.566,1.111-3.819,1.111c-1.289,0-2.468-1.042-4.028-1.042C6.225,5.514,3,7.48,3,12.111C3,16.324,6.817,21,8.972,21c1.309,0.013,1.627-0.824,3.403-0.833c1.778-0.013,2.161,0.844,3.472,0.833c1.476-0.011,2.63-1.632,3.472-2.917c0.604-0.92,0.851-1.391,1.319-2.431c-3.473-0.88-4.164-6.481,0-7.639C19.852,6.672,17.559,5.444,16.194,5.444z"/></g></g><g id="Outlined" style="display:none;"><path style="display:inline;" d="M16,1c-1.135,0-2.231,0.48-2.957,1.268c-0.656,0.717-1.055,1.99-1.055,3.014c1.172,0,2.424-0.602,3.119-1.404C15.755,3.127,16,2.209,16,1z"/><path style="display:inline;" d="M18.786,12c0-1.539,0.867-2.86,2.125-3.529c-1.087-2.044-3.015-2.958-4.44-2.958c-1.539,0-2.826,1.042-4.098,1.042S9.815,5.513,8.276,5.513C6.182,5.514,3,7.48,3,12.111C3,16.324,6.766,21,8.892,21c0.01,0,0.02,0,0.03,0c1.269,0,1.712-0.824,3.451-0.833C14.112,20.176,14.556,21,15.824,21c0.01,0,0.02,0,0.03,0c1.542,0,3.941-2.463,5.146-5.423C19.693,14.925,18.786,13.576,18.786,12z M15.811,19c-0.152-0.002-0.263-0.043-0.638-0.204c-0.577-0.248-1.449-0.622-2.811-0.629c-1.341,0.007-2.213,0.381-2.79,0.629c-0.358,0.154-0.475,0.198-0.641,0.203C7.941,18.758,5,15.437,5,12.111c0-3.473,2.208-4.597,3.276-4.598c0.432,0,0.961,0.205,1.522,0.423c0.748,0.29,1.596,0.619,2.576,0.619c0.98,0,1.828-0.329,2.576-0.619c0.56-0.217,1.089-0.423,1.521-0.423c0.418,0,1.068,0.197,1.677,0.684c-0.867,1.054-1.361,2.39-1.361,3.803c0,1.597,0.62,3.081,1.691,4.18C17.487,17.865,16.262,18.886,15.811,19z"/></g><g id="Rounded" style="display:none;"><path style="display:inline;" d="M16.165,1.49c0.002-0.277-0.241-0.482-0.513-0.432c-1.026,0.186-2.109,0.763-2.79,1.471c-0.614,0.643-1.116,1.554-1.093,2.48c0.006,0.239,0.199,0.446,0.436,0.426c1.121-0.093,2.203-0.699,2.879-1.447C15.683,3.322,16.158,2.432,16.165,1.49z"/><g style="display:inline;"><path d="M16.194,5.444c-1.809,0-2.566,1.111-3.819,1.111c-1.289,0-2.468-1.042-4.028-1.042C6.225,5.514,3,7.48,3,12.111C3,16.324,6.817,21,8.972,21c1.309,0.013,1.627-0.824,3.403-0.833c1.778-0.013,2.161,0.844,3.472,0.833c1.476-0.011,2.63-1.632,3.472-2.917c0.434-0.66,0.683-1.09,0.963-1.664c0.189-0.389,0.016-0.843-0.371-1.038c-2.57-1.291-3.053-5.453-0.207-6.996c0.472-0.256,0.601-0.88,0.206-1.244C18.872,6.184,17.253,5.444,16.194,5.444z"/></g></g><g id="two_x5F_tone" style="display:none;"><g style="display:inline;opacity:0.13;"><path d="M15.824,20c-0.381,0-0.645-0.113-1.045-0.285c-0.563-0.242-1.263-0.542-2.411-0.548c-1.138,0.006-1.838,0.306-2.401,0.548C9.567,19.887,9.303,20,8.893,20c0,0-0.001,0-0.001,0C7.597,20,4,16.077,4,12.111c0-4.228,2.881-5.597,4.276-5.598c0.619,0,1.233,0.238,1.883,0.49c0.699,0.271,1.421,0.552,2.214,0.552s1.515-0.28,2.214-0.552c0.65-0.252,1.264-0.49,1.883-0.49c0.914,0,2.169,0.533,3.074,1.684c-1.104,0.938-1.758,2.319-1.758,3.803c0,1.579,0.727,3.025,1.946,3.96C18.521,18.417,16.672,20,15.824,20z"/></g><path style="display:inline;" d="M16,1c-1.135,0-2.231,0.48-2.957,1.268c-0.656,0.717-1.055,1.99-1.055,3.014c1.172,0,2.424-0.602,3.119-1.404C15.755,3.127,16,2.209,16,1z"/><path style="display:inline;" d="M18.786,12c0-1.539,0.867-2.86,2.125-3.529c-1.087-2.044-3.015-2.958-4.44-2.958c-1.539,0-2.826,1.042-4.098,1.042S9.815,5.513,8.276,5.513C6.182,5.514,3,7.48,3,12.111C3,16.324,6.766,21,8.892,21c0.01,0,0.02,0,0.03,0c1.269,0,1.712-0.824,3.451-0.833C14.112,20.176,14.556,21,15.824,21c0.01,0,0.02,0,0.03,0c1.542,0,3.941-2.463,5.146-5.423C19.693,14.925,18.786,13.576,18.786,12z M15.811,19c-0.152-0.002-0.263-0.043-0.638-0.204c-0.577-0.248-1.449-0.622-2.811-0.629c-1.341,0.007-2.213,0.381-2.79,0.629c-0.358,0.154-0.475,0.198-0.641,0.203C7.941,18.758,5,15.437,5,12.111c0-3.473,2.208-4.597,3.276-4.598c0.432,0,0.961,0.205,1.522,0.423c0.748,0.29,1.596,0.619,2.576,0.619c0.98,0,1.828-0.329,2.576-0.619c0.56-0.217,1.089-0.423,1.521-0.423c0.418,0,1.068,0.197,1.677,0.684c-0.867,1.054-1.361,2.39-1.361,3.803c0,1.597,0.62,3.081,1.691,4.18C17.487,17.865,16.262,18.886,15.811,19z"/></g><g id="sharp" style="display:none;"><path style="display:inline;" d="M16.125,1c-1.153,0.067-2.477,0.71-3.264,1.528c-0.711,0.744-1.271,1.848-1.042,2.917c1.253,0.033,2.511-0.625,3.264-1.458C15.786,3.208,16.318,2.12,16.125,1z"/><g style="display:inline;"><path d="M16.194,5.444c-1.809,0-2.566,1.111-3.819,1.111c-1.289,0-2.468-1.042-4.028-1.042C6.225,5.514,3,7.48,3,12.111C3,16.324,6.817,21,8.972,21c1.309,0.013,1.627-0.824,3.403-0.833c1.778-0.013,2.161,0.844,3.472,0.833c1.476-0.011,2.63-1.632,3.472-2.917c0.604-0.92,0.851-1.391,1.319-2.431c-3.473-0.88-4.164-6.481,0-7.639C19.852,6.672,17.559,5.444,16.194,5.444z"/></g></g></svg>