<svg width="123" height="24" viewBox="0 0 123 24" fill="none" xmlns="http://www.w3.org/2000/svg">
<g clip-path="url(#clip0_57_561)">
<path d="M20.3532 1.875C20.5392 2.05259 20.7128 2.23845 20.874 2.42843L20.8409 2.38713C20.688 2.20541 20.5227 2.03607 20.3532 1.875ZM8.93902 4.2085L1.61606 12.8115C-0.809772 15.6613 -0.462634 19.9524 2.38886 22.3809C3.6121 23.4258 5.17423 23.9999 6.78594 23.9999C8.78198 23.9999 10.6664 23.1285 11.9599 21.6127L15.3983 17.5776L12.9518 14.7113L9.12912 19.2008C8.54229 19.8864 7.69098 20.2828 6.78594 20.2828C6.2735 20.2828 5.50897 20.1548 4.79816 19.5518C4.17414 19.019 3.79394 18.2756 3.72782 17.4579C3.6617 16.6401 3.91792 15.8471 4.45102 15.2235L9.10432 9.75936C8.88116 9.26787 8.71173 8.75161 8.60841 8.22296C8.57535 8.04537 8.54642 7.86777 8.52163 7.69018C8.50923 7.60758 8.50096 7.52497 8.4927 7.44237C8.4927 7.41346 8.48857 7.38042 8.48443 7.34738C8.4803 7.26478 8.47204 7.17805 8.47204 7.09131C8.46377 6.8972 8.46377 6.70308 8.47204 6.50484C8.47204 6.40985 8.4803 6.31072 8.48857 6.2116C8.4927 6.13313 8.50096 6.05466 8.50923 5.97619C8.51336 5.96793 8.51336 5.95967 8.51336 5.95141C8.52576 5.86054 8.53816 5.76968 8.55056 5.68295C8.62494 5.17495 8.75718 4.68347 8.93902 4.2085ZM13.8113 4.34067C13.77 4.36958 13.7328 4.40262 13.6956 4.43566C13.737 4.40262 13.7742 4.36958 13.8113 4.34067ZM13.6956 4.43566C13.6956 4.43566 13.6832 4.44392 13.6791 4.44805C13.6584 4.46457 13.6378 4.48109 13.6212 4.50174C13.646 4.47696 13.6708 4.45631 13.6956 4.43566ZM17.9439 4.7289C17.9687 4.75368 17.9935 4.78259 18.0183 4.8115L18.0101 4.79911C17.9894 4.77433 17.9687 4.75368 17.9439 4.7289ZM13.394 4.7289C13.3692 4.75368 13.3485 4.77433 13.3278 4.79911L13.3196 4.8115C13.3444 4.78259 13.3692 4.75781 13.394 4.7289ZM18.0183 4.8115L18.0803 4.88584C18.0597 4.86106 18.039 4.83628 18.0183 4.8115ZM13.3154 4.8115C13.2948 4.83628 13.2741 4.86106 13.2534 4.88584L13.3154 4.8115ZM22.4485 6.50484C22.4485 6.52549 22.4485 6.55027 22.4485 6.57092C22.4485 6.54614 22.4485 6.52549 22.4485 6.50484ZM22.4526 6.57092C22.4609 6.75678 22.4526 6.94263 22.4526 7.12848C22.4609 7.01697 22.465 6.90133 22.465 6.78982C22.465 6.71547 22.4609 6.64526 22.4567 6.57092H22.4526Z" fill="#FF4E9F"/>
<path d="M15.6666 0C15.5674 0 15.4641 0.0041301 15.3649 0.0082602C15.2699 0.0123903 15.1748 0.0165204 15.0756 0.0289107C15.0756 0.0289107 15.0715 0.0289107 15.0674 0.0289107C15.0632 0.0289107 15.055 0.0289107 15.0508 0.0289107C14.9765 0.0330408 14.8979 0.0454311 14.8194 0.0578214C14.7781 0.0578214 14.7368 0.0619515 14.6954 0.0743418C14.6293 0.0743418 14.5673 0.0908622 14.5012 0.103252C14.1954 0.152814 13.8937 0.227155 13.6003 0.322148C13.5176 0.346928 13.4391 0.375839 13.3565 0.40475C13.3358 0.41301 13.3151 0.42127 13.2945 0.42953C13.2201 0.454311 13.1416 0.487352 13.0672 0.516262C12.9391 0.569954 12.8151 0.627775 12.6911 0.685596C12.5382 0.759938 12.3936 0.83841 12.2489 0.925142C12.1622 0.974703 12.0754 1.02426 11.9927 1.08209C11.9101 1.13578 11.8274 1.18947 11.7448 1.24729C11.6621 1.30511 11.5836 1.36706 11.5009 1.42901C11.4224 1.49097 11.348 1.55292 11.2695 1.619C11.1662 1.70573 11.067 1.79659 10.9678 1.89158L10.7653 2.09396C9.6826 3.21735 9.02965 4.66701 8.90154 6.24471C8.81062 7.34331 8.98832 8.42127 9.40158 9.41249C9.45944 9.54879 9.52556 9.68921 9.59168 9.82137C9.8355 10.3087 10.1372 10.763 10.4967 11.1884L12.9556 14.0712L13.2242 14.3893L15.6666 17.2597L15.6997 17.2969L15.9393 17.5777L19.3777 21.6128C20.667 23.1285 22.5556 24 24.5517 24C26.1593 24 27.7214 23.4259 28.9488 22.381C31.8002 19.9525 32.1474 15.6613 29.7174 12.8116L22.3903 4.20857C23.0722 5.98864 23.0309 7.99174 22.2333 9.75942L26.8866 15.2235C27.4197 15.8472 27.6759 16.6402 27.6098 17.4579C27.5437 18.2757 27.1635 19.0191 26.5395 19.5519C25.8286 20.1549 25.0641 20.2829 24.5517 20.2829C23.6466 20.2829 22.7912 19.8864 22.2085 19.2008L18.3817 14.7073L18.1462 14.4264L18.1131 14.3893L15.6707 11.5188L15.398 11.205L13.3317 8.77646C12.7986 8.15281 12.5424 7.35983 12.6085 6.54208C12.6167 6.43469 12.6291 6.33144 12.6539 6.22819C12.7407 5.73258 12.9473 5.27414 13.2573 4.88591L13.3275 4.79917C13.3482 4.77439 13.3689 4.75374 13.3937 4.72896C13.4267 4.68766 13.4639 4.64636 13.5052 4.60919C13.5424 4.57202 13.5796 4.53485 13.621 4.50181C13.6375 4.48116 13.6582 4.46464 13.6788 4.44812C13.7243 4.41094 13.7697 4.37377 13.8111 4.34073C13.873 4.2953 13.9309 4.254 13.9929 4.21683C14.0466 4.17966 14.1003 4.14662 14.1541 4.11771C14.2202 4.07641 14.2863 4.04337 14.3524 4.01032C14.3938 3.98967 14.4392 3.96902 14.4847 3.9525C14.526 3.93598 14.5715 3.91533 14.6169 3.90294C14.6706 3.88229 14.7244 3.86164 14.7781 3.84925C14.8525 3.82447 14.9269 3.80795 14.9971 3.79143C15.055 3.77904 15.1128 3.76665 15.1666 3.75839C15.2037 3.75013 15.2368 3.746 15.2699 3.74187C15.336 3.73361 15.398 3.72948 15.46 3.72535C15.5302 3.72122 15.5963 3.71709 15.6583 3.71709H15.6749C15.7368 3.71709 15.803 3.72122 15.8732 3.72535C15.9352 3.72948 15.9972 3.73361 16.0633 3.74187C16.1005 3.74187 16.1336 3.75426 16.1666 3.75839C16.2947 3.77904 16.427 3.80795 16.5675 3.85338C16.6212 3.86577 16.6708 3.88229 16.7204 3.90294C16.7617 3.91533 16.8072 3.93598 16.8526 3.9525C16.8981 3.97315 16.9436 3.9938 16.9849 4.01032C17.0675 4.05163 17.1419 4.09293 17.2205 4.13836C17.2411 4.15075 17.2618 4.16314 17.2824 4.17553C17.3651 4.22509 17.4436 4.27878 17.5221 4.34073H17.5263C17.5965 4.39442 17.6626 4.44812 17.7246 4.51007C17.7618 4.53898 17.799 4.57615 17.8321 4.60919C17.8734 4.64636 17.9106 4.68766 17.9437 4.72896C17.9685 4.75374 17.9891 4.77439 18.0098 4.79917L18.08 4.88591C18.39 5.27414 18.5966 5.73258 18.6834 6.22819C18.7082 6.33144 18.7206 6.43469 18.7288 6.54208C18.795 7.35983 18.5387 8.15281 18.0056 8.77646L15.9393 11.205L18.3817 14.0712L20.8365 11.1884C21.2001 10.7589 21.5018 10.3005 21.7415 9.81724C21.8118 9.68095 21.8738 9.54466 21.9357 9.40836C22.2044 8.76407 22.3655 8.09499 22.4275 7.41766C22.4358 7.32266 22.4441 7.22354 22.4482 7.12855C22.4564 6.92204 22.4606 6.71141 22.4482 6.5049V6.49664C22.4482 6.381 22.4358 6.26536 22.4234 6.14972C22.4234 6.08363 22.411 6.01755 22.4027 5.95147C22.3779 5.7491 22.3366 5.54672 22.2953 5.34435C22.2663 5.21218 22.2333 5.08002 22.2002 4.95199C21.944 4.04337 21.5018 3.18018 20.8737 2.4285C20.7125 2.23851 20.5389 2.05266 20.353 1.87506C20.1009 1.63139 19.8281 1.41249 19.543 1.21425C19.4768 1.16882 19.4107 1.12339 19.3446 1.08209C19.262 1.02426 19.1752 0.974703 19.0884 0.925142C18.9148 0.82189 18.7412 0.726897 18.5594 0.644295C18.4685 0.602994 18.3776 0.561693 18.2867 0.524522C18.1957 0.487352 18.1048 0.450181 18.0098 0.41714C17.9189 0.379969 17.8238 0.351058 17.7288 0.322148C17.4436 0.227155 17.1502 0.156944 16.8485 0.107383C16.7741 0.0908621 16.6997 0.0784719 16.6212 0.0702117C16.5882 0.0619515 16.5592 0.0578214 16.522 0.0578214C16.4435 0.0454311 16.3609 0.0330408 16.2782 0.0289107C16.2782 0.0289107 16.2741 0.0289107 16.27 0.0289107C16.27 0.0289107 16.2658 0.0289107 16.2617 0.0289107C16.1666 0.0165204 16.0716 0.0123903 15.9724 0.0082602C15.8732 0.0041301 15.7699 0 15.6666 0Z" fill="#FF4E9F"/>
</g>
<path d="M40.247 9.92815C40.247 6.64057 42.7467 4.57715 46.7614 4.57715C50.9465 4.57715 53.4462 6.82356 53.4462 10.616V18.8696H50.2774V15.2224C49.6272 17.7212 47.5694 19.2482 44.7414 19.2482C41.7998 19.2482 39.8367 17.5887 39.8367 15.0962C39.8367 12.509 41.9513 10.9378 45.4421 10.9378H50.2774V10.616C50.2774 8.51468 48.9202 7.2211 46.6983 7.2211C44.4384 7.2211 43.4095 8.27489 43.4095 9.92815H40.247ZM50.2774 13.1589H45.6188C43.9019 13.1589 42.9929 13.7521 42.9929 14.8816C42.9929 16.0679 44.0092 16.7305 45.8272 16.7305C48.4152 16.7305 50.2774 15.3991 50.2774 13.5565V13.1589Z" fill="#FF4E9F"/>
<path d="M58.3762 12.244V18.8696H55.2074V4.95576H58.3762V9.58741C58.9507 6.71629 60.5666 4.95576 63.3946 4.95576H64.1268V7.94677H63.0853C59.4998 7.94677 58.3762 9.32238 58.3762 12.244Z" fill="#FF4E9F"/>
<path d="M68.0476 11.9095C68.0476 14.7491 69.4616 16.4465 71.8035 16.4465C73.8172 16.4465 74.8777 15.1719 75.1933 13.4997H78.3558C77.9329 16.7999 75.5279 19.2482 71.7972 19.2482C67.6815 19.2482 64.8662 16.3266 64.8662 11.9095C64.8662 7.49244 67.6752 4.57715 71.7972 4.57715C75.5342 4.57715 77.9329 7.02549 78.3558 10.3257H75.1933C74.884 8.6535 73.8235 7.37885 71.8035 7.37885C69.4616 7.37885 68.0476 9.06997 68.0476 11.9095Z" fill="#FF4E9F"/>
<path d="M79.7242 9.92815C79.7242 6.64057 82.224 4.57715 86.2387 4.57715C90.4238 4.57715 92.9235 6.82356 92.9235 10.616V18.8696H89.7547V15.2224C89.1045 17.7212 87.0466 19.2482 84.2187 19.2482C81.2771 19.2482 79.3139 17.5887 79.3139 15.0962C79.3139 12.509 81.4286 10.9378 84.9194 10.9378H89.7547V10.616C89.7547 8.51468 88.3975 7.2211 86.1755 7.2211C83.9157 7.2211 82.8868 8.27489 82.8868 9.92815H79.7242ZM89.7547 13.1589H85.0961C83.3791 13.1589 82.4701 13.7521 82.4701 14.8816C82.4701 16.0679 83.4864 16.7305 85.3044 16.7305C87.8925 16.7305 89.7547 15.3991 89.7547 13.5565V13.1589Z" fill="#FF4E9F"/>
<path d="M97.8535 11.4552V18.8696H94.6847V4.95576H97.8535V9.05104C98.4847 6.21148 100.29 4.57715 102.884 4.57715C105.965 4.57715 107.726 6.89928 107.726 10.9378V18.8696H104.557V11.2533C104.557 8.67243 103.522 7.37254 101.42 7.37254C99.1728 7.37254 97.8535 8.84912 97.8535 11.4552Z" fill="#FF4E9F"/>
<path d="M109.511 9.92815C109.511 6.64057 112.011 4.57715 116.025 4.57715C120.21 4.57715 122.71 6.82356 122.71 10.616V18.8696H119.541V15.2224C118.891 17.7212 116.833 19.2482 114.005 19.2482C111.064 19.2482 109.101 17.5887 109.101 15.0962C109.101 12.509 111.215 10.9378 114.706 10.9378H119.541V10.616C119.541 8.51468 118.184 7.2211 115.962 7.2211C113.702 7.2211 112.673 8.27489 112.673 9.92815H109.511ZM119.541 13.1589H114.883C113.166 13.1589 112.257 13.7521 112.257 14.8816C112.257 16.0679 113.273 16.7305 115.091 16.7305C117.679 16.7305 119.541 15.3991 119.541 13.5565V13.1589Z" fill="#FF4E9F"/>
<defs>
<clipPath id="clip0_57_561">
<rect width="31.3333" height="24" fill="white"/>
</clipPath>
</defs>
</svg>
