<svg width="70" height="70" viewBox="0 0 70 70" fill="none" xmlns="http://www.w3.org/2000/svg">
<rect width="70" height="70" rx="35" fill="#161616"/>
<path d="M20.75 42.9169L28.2993 34.1093C28.9703 33.3266 29.3051 32.9352 29.7033 32.7941C30.0527 32.6702 30.4358 32.6729 30.7834 32.8016C31.1796 32.9483 31.5088 33.3442 32.1689 34.1362L36.3907 39.2024C37.0067 39.9416 37.314 40.3112 37.6886 40.4597C38.0177 40.5903 38.3822 40.6067 38.7218 40.5065C39.1083 40.3925 39.4485 40.0523 40.1288 39.3719L40.9159 38.5849C41.6086 37.8922 41.9549 37.5459 42.3469 37.4328C42.6912 37.3334 43.0586 37.3538 43.3898 37.4906C43.767 37.6463 44.0736 38.0289 44.6855 38.7938L49.2507 44.5003M49.25 27.4001V42.6001C49.25 44.3736 49.2503 45.2605 48.9052 45.9379C48.6016 46.5337 48.1165 47.018 47.5207 47.3216C46.8433 47.6668 45.9571 47.6668 44.1836 47.6668H25.817C24.0435 47.6668 23.1561 47.6668 22.4787 47.3216C21.8828 47.018 21.3987 46.5337 21.0951 45.9379C20.75 45.2605 20.75 44.3736 20.75 42.6001V27.4001C20.75 25.6266 20.75 24.7399 21.0951 24.0626C21.3987 23.4667 21.8828 22.9822 22.4787 22.6786C23.1561 22.3335 24.0435 22.3335 25.817 22.3335H44.1836C45.9571 22.3335 46.8433 22.3335 47.5207 22.6786C48.1165 22.9822 48.6016 23.4667 48.9052 24.0626C49.2503 24.7399 49.25 25.6266 49.25 27.4001ZM39.75 31.8335C38.8755 31.8335 38.1667 31.1246 38.1667 30.2502C38.1667 29.3757 38.8755 28.6668 39.75 28.6668C40.6245 28.6668 41.3333 29.3757 41.3333 30.2502C41.3333 31.1246 40.6245 31.8335 39.75 31.8335Z" stroke="#F7F7F7" stroke-width="2" stroke-linecap="round" stroke-linejoin="round"/>
<circle cx="40" cy="30" r="2" fill="#F7F7F7"/>
</svg>
