<svg width="36" height="36" viewBox="0 0 36 36" fill="none" xmlns="http://www.w3.org/2000/svg">
<path d="M18.1484 0.421875C8.53125 0.421875 0.421875 8.14844 0.421875 17.6953C0.421875 18 0.429688 35.5781 0.429688 35.5781L18.1484 35.5625C27.7812 35.5625 35.5781 27.5312 35.5781 17.9922C35.5781 8.45312 27.7812 0.421875 18.1484 0.421875ZM18 28.0469C16.4766 28.0469 15.0234 27.7109 13.7344 27.0937L7.36719 28.6719L9.16406 22.7891C8.39844 21.3672 7.95313 19.7344 7.95313 18C7.95313 12.4531 12.4531 7.95313 18 7.95313C23.5469 7.95313 28.0469 12.4531 28.0469 18C28.0469 23.5469 23.5469 28.0469 18 28.0469Z" fill="#F8F7F7"/>
</svg>
