<svg width="40" height="40" viewBox="0 0 40 40" fill="none" xmlns="http://www.w3.org/2000/svg">
<path d="M33.3288 8.34496C30.843 7.24949 28.1851 6.4533 25.4066 6C25.0652 6.58115 24.6665 7.3628 24.3917 7.98464C21.4379 7.56621 18.5112 7.56621 15.6117 7.98464C15.3369 7.3628 14.9291 6.58115 14.5849 6C11.8032 6.4533 9.14229 7.25239 6.6566 8.35077C1.64292 15.4874 0.283795 22.4467 0.96336 29.3072C4.2887 31.6464 7.51134 33.0672 10.6796 33.9971C11.4619 32.983 12.1596 31.905 12.7606 30.7688C11.6159 30.3591 10.5196 29.8535 9.48358 29.2665C9.75843 29.0748 10.0272 28.8742 10.287 28.668C16.6055 31.4516 23.4705 31.4516 29.7135 28.668C29.9762 28.8742 30.245 29.0748 30.5169 29.2665C29.4779 29.8563 28.3785 30.362 27.2338 30.7717C27.8348 31.905 28.5295 32.9859 29.3148 34C32.486 33.0702 35.7117 31.6493 39.0371 29.3072C39.8345 21.3541 37.6749 14.4587 33.3288 8.34496ZM13.6214 25.0881C11.7246 25.0881 10.1692 23.4201 10.1692 21.389C10.1692 19.3579 11.6914 17.6871 13.6214 17.6871C15.5514 17.6871 17.1068 19.3549 17.0735 21.389C17.0766 23.4201 15.5514 25.0881 13.6214 25.0881ZM26.3791 25.0881C24.4823 25.0881 22.9268 23.4201 22.9268 21.389C22.9268 19.3579 24.4491 17.6871 26.3791 17.6871C28.309 17.6871 29.8645 19.3549 29.8313 21.389C29.8313 23.4201 28.309 25.0881 26.3791 25.0881Z" fill="white"/>
</svg>
