<svg width="167" height="34" viewBox="0 0 167 34" fill="none" xmlns="http://www.w3.org/2000/svg">
<path d="M59.0165 26.48C60.0665 26.48 61.0465 26.265 61.9565 25.835C62.8765 25.395 63.6865 24.775 64.3865 23.975V26H68.9915V10.64H64.3865V12.515C63.7765 11.775 63.0015 11.2 62.0615 10.79C61.1215 10.37 60.1065 10.16 59.0165 10.16C57.5365 10.16 56.2215 10.52 55.0715 11.24C53.9315 11.95 53.0365 12.92 52.3865 14.15C51.7365 15.37 51.4115 16.75 51.4115 18.29C51.4115 19.87 51.7515 21.28 52.4315 22.52C53.1115 23.75 54.0215 24.72 55.1615 25.43C56.3115 26.13 57.5965 26.48 59.0165 26.48ZM60.3815 22.565C59.1915 22.565 58.2065 22.165 57.4265 21.365C56.6465 20.565 56.2565 19.55 56.2565 18.32C56.2565 17.09 56.6465 16.075 57.4265 15.275C58.2165 14.475 59.2015 14.075 60.3815 14.075C61.5715 14.075 62.5515 14.475 63.3215 15.275C64.1015 16.065 64.4915 17.08 64.4915 18.32C64.4915 19.56 64.1065 20.58 63.3365 21.38C62.5665 22.17 61.5815 22.565 60.3815 22.565ZM74.4084 26H79.0134V17.42C79.0134 16.85 79.1784 16.32 79.5084 15.83C79.8484 15.33 80.2834 14.925 80.8134 14.615C81.3534 14.305 81.9234 14.15 82.5234 14.15C83.3934 14.15 84.2134 14.4 84.9834 14.9L86.9034 11.015C86.5034 10.765 86.0134 10.56 85.4334 10.4C84.8634 10.24 84.3084 10.16 83.7684 10.16C82.8184 10.16 81.9284 10.395 81.0984 10.865C80.2784 11.325 79.5834 11.985 79.0134 12.845V10.64H74.4084V26ZM96.4762 26.48C97.4862 26.48 98.4362 26.335 99.3262 26.045C100.216 25.765 100.951 25.41 101.531 24.98L99.9562 21.875C99.2462 22.425 98.3262 22.7 97.1962 22.7C96.3062 22.7 95.5212 22.505 94.8412 22.115C94.1712 21.725 93.6512 21.2 93.2812 20.54C92.9112 19.87 92.7262 19.13 92.7262 18.32C92.7262 17.58 92.8962 16.875 93.2362 16.205C93.5862 15.535 94.0912 14.99 94.7512 14.57C95.4112 14.15 96.2162 13.94 97.1662 13.94C98.2962 13.94 99.2262 14.215 99.9562 14.765L101.531 11.66C100.971 11.22 100.231 10.86 99.3112 10.58C98.4012 10.3 97.4512 10.16 96.4612 10.16C95.2312 10.16 94.0962 10.38 93.0562 10.82C92.0162 11.26 91.1112 11.86 90.3412 12.62C89.5712 13.38 88.9712 14.25 88.5412 15.23C88.1112 16.21 87.8962 17.245 87.8962 18.335C87.8962 19.475 88.1212 20.54 88.5712 21.53C89.0212 22.51 89.6412 23.37 90.4312 24.11C91.2212 24.85 92.1312 25.43 93.1612 25.85C94.2012 26.27 95.3062 26.48 96.4762 26.48ZM111.516 26.48C112.566 26.48 113.546 26.265 114.456 25.835C115.376 25.395 116.186 24.775 116.886 23.975V26H121.491V10.64H116.886V12.515C116.276 11.775 115.501 11.2 114.561 10.79C113.621 10.37 112.606 10.16 111.516 10.16C110.036 10.16 108.721 10.52 107.571 11.24C106.431 11.95 105.536 12.92 104.886 14.15C104.236 15.37 103.911 16.75 103.911 18.29C103.911 19.87 104.251 21.28 104.931 22.52C105.611 23.75 106.521 24.72 107.661 25.43C108.811 26.13 110.096 26.48 111.516 26.48ZM112.881 22.565C111.691 22.565 110.706 22.165 109.926 21.365C109.146 20.565 108.756 19.55 108.756 18.32C108.756 17.09 109.146 16.075 109.926 15.275C110.716 14.475 111.701 14.075 112.881 14.075C114.071 14.075 115.051 14.475 115.821 15.275C116.601 16.065 116.991 17.08 116.991 18.32C116.991 19.56 116.606 20.58 115.836 21.38C115.066 22.17 114.081 22.565 112.881 22.565ZM126.908 26H131.513V16.91C131.513 16.02 131.808 15.275 132.398 14.675C132.988 14.065 133.793 13.76 134.813 13.76C135.813 13.76 136.598 14.07 137.168 14.69C137.748 15.3 138.038 16.155 138.038 17.255V26H142.643V16.28C142.643 15.06 142.388 13.995 141.878 13.085C141.368 12.165 140.663 11.45 139.763 10.94C138.873 10.42 137.838 10.16 136.658 10.16C135.598 10.16 134.623 10.365 133.733 10.775C132.843 11.175 132.103 11.7 131.513 12.35V10.64H126.908V26ZM154.173 26.48C155.223 26.48 156.203 26.265 157.113 25.835C158.033 25.395 158.843 24.775 159.543 23.975V26H164.148V10.64H159.543V12.515C158.933 11.775 158.158 11.2 157.218 10.79C156.278 10.37 155.263 10.16 154.173 10.16C152.693 10.16 151.378 10.52 150.228 11.24C149.088 11.95 148.193 12.92 147.543 14.15C146.893 15.37 146.568 16.75 146.568 18.29C146.568 19.87 146.908 21.28 147.588 22.52C148.268 23.75 149.178 24.72 150.318 25.43C151.468 26.13 152.753 26.48 154.173 26.48ZM155.538 22.565C154.348 22.565 153.363 22.165 152.583 21.365C151.803 20.565 151.413 19.55 151.413 18.32C151.413 17.09 151.803 16.075 152.583 15.275C153.373 14.475 154.358 14.075 155.538 14.075C156.728 14.075 157.708 14.475 158.478 15.275C159.258 16.065 159.648 17.08 159.648 18.32C159.648 19.56 159.263 20.58 158.493 21.38C157.723 22.17 156.738 22.565 155.538 22.565Z" fill="white"/>
<path fill-rule="evenodd" clip-rule="evenodd" d="M22.486 27.2465C23.0564 27.9739 23.7694 28.58 24.5825 29.0286C25.3956 29.4771 26.2919 29.7589 27.2178 29.8569C28.1437 29.955 29.0801 29.8673 29.9709 29.5991C30.8617 29.331 31.6885 28.8879 32.4019 28.2964C33.1152 27.7049 33.7004 26.9772 34.1223 26.1569C34.5442 25.3366 34.7942 24.4406 34.8573 23.5225C34.9204 22.6044 34.7952 21.6832 34.4894 20.8141C34.1836 19.945 33.7033 19.1458 33.0774 18.4644L22.9974 6.5934C21.8231 5.15534 20.1191 4.23685 18.2598 4.03978C16.4004 3.84271 14.538 4.3832 13.0818 5.54245C11.6733 6.75811 10.8109 8.47668 10.6842 10.3204C10.5575 12.1642 11.1768 13.9822 12.406 15.3748L22.486 27.2465ZM29.8818 25.3288C29.22 25.8558 28.3734 26.1015 27.5283 26.012C26.6832 25.9225 25.9086 25.505 25.3748 24.8513L15.2948 12.9828C14.7362 12.3498 14.4547 11.5235 14.5122 10.6854C14.5697 9.84744 14.9616 9.06629 15.6017 8.51362C16.2636 7.98658 17.1102 7.74082 17.9555 7.83034C18.8007 7.91987 19.5754 8.33735 20.1093 8.99104L30.1893 20.8571C30.4663 21.1706 30.6782 21.5349 30.8128 21.9294C30.9473 22.3238 31.0019 22.7405 30.9734 23.1558C30.9449 23.571 30.8339 23.9767 30.6467 24.3495C30.4595 24.7224 30.1998 25.0551 29.8824 25.3288H29.8818Z" fill="white"/>
<path fill-rule="evenodd" clip-rule="evenodd" d="M12.33 27.2465C11.1557 28.6847 9.45154 29.6034 7.59207 29.8004C5.73261 29.9975 3.87005 29.4569 2.4138 28.2975C1.00519 27.0817 0.142796 25.3629 0.0161947 23.5191C-0.110407 21.6752 0.509148 19.8571 1.73866 18.4644L11.8187 6.5934C12.993 5.15534 14.697 4.23685 16.5563 4.03978C18.4156 3.84271 20.2781 4.3832 21.7343 5.54245C23.1428 6.75811 24.0052 8.47668 24.1319 10.3204C24.2586 12.1642 23.6393 13.9822 22.41 15.3748L12.33 27.2465ZM4.93427 25.3288C5.59611 25.8558 6.44264 26.1015 7.28777 26.012C8.13291 25.9225 8.90748 25.505 9.44125 24.8513L19.52 12.9828C20.0787 12.3498 20.3602 11.5235 20.3026 10.6854C20.2451 9.84744 19.8532 9.06629 19.2132 8.51362C18.5513 7.98678 17.7048 7.74113 16.8597 7.83065C16.0146 7.92017 15.2401 8.33753 14.7062 8.99104L4.62682 20.8571C4.34977 21.1706 4.13795 21.535 4.00345 21.9294C3.86896 22.3239 3.81443 22.7406 3.84298 23.1559C3.87153 23.5712 3.98261 23.9768 4.16985 24.3496C4.3571 24.7224 4.61685 25.0552 4.93427 25.3288Z" fill="white"/>
</svg>
