<svg width="27" height="26" viewBox="0 0 27 26" fill="none" xmlns="http://www.w3.org/2000/svg">
<path fill-rule="evenodd" clip-rule="evenodd" d="M23.3426 7.81653L25.4249 9.9459L20.9235 14.5491L25.7719 19.5072L23.6897 21.6365L16.7589 14.5491L23.3426 7.81653Z" fill="#55C6FF"/>
<path fill-rule="evenodd" clip-rule="evenodd" d="M18.5615 2.6884L16.4855 0.60611L11.6515 5.45457L6.8176 0.60611L4.74154 2.6884L11.6515 9.61914L18.5615 2.6884Z" fill="#101010"/>
<path fill-rule="evenodd" clip-rule="evenodd" d="M17.96 3.03543L15.9232 0.953145L11.5201 5.45457L6.77762 0.60611L4.74085 2.6884L11.5201 9.61914L17.96 3.03543Z" fill="#55C6FF"/>
<path fill-rule="evenodd" clip-rule="evenodd" d="M25.1842 10.3801C25.8417 9.72258 25.8417 8.65651 25.1842 7.99898L24.674 7.48874L18.8888 7.42357L18.7211 1.53591L18.381 1.19575C17.7235 0.538218 16.6574 0.538217 15.9999 1.19575L16.0024 10.3099L25.1842 10.3801Z" fill="#9A71FF"/>
<path d="M18.7192 2.55593L18.7193 1.5355L18.3792 1.19533C17.7216 0.537803 16.6556 0.537803 15.998 1.19533L15.9979 5.27722L18.7192 2.55593Z" fill="#584DE2"/>
<path d="M23.8221 7.65859L24.8426 7.65849L25.1827 7.99865C25.8402 8.65618 25.8402 9.72225 25.1827 10.3798L21.1008 10.3799L23.8221 7.65859Z" fill="#584DE2"/>
<path fill-rule="evenodd" clip-rule="evenodd" d="M8.34765 22.8115L10.477 24.8938L15.0802 20.3924L20.0383 25.2408L22.1676 23.1585L15.0802 16.2278L8.34765 22.8115Z" fill="#51E5A5"/>
<path fill-rule="evenodd" clip-rule="evenodd" d="M3.21953 18.0304L1.13724 15.9543L5.98569 11.1204L1.13724 6.28647L3.21953 4.21041L10.1503 11.1204L3.21953 18.0304Z" fill="#101010"/>
<path fill-rule="evenodd" clip-rule="evenodd" d="M3.56644 17.4301L1.48415 15.3933L5.98557 10.9902L1.13712 6.24771L3.2194 4.21094L10.1501 10.9902L3.56644 17.4301Z" fill="#51E5A5"/>
<path fill-rule="evenodd" clip-rule="evenodd" d="M10.9112 24.6511C10.2537 25.3087 9.18764 25.3087 8.53011 24.6511L8.01987 24.1409L7.9547 18.3557L2.06704 18.1881L1.72688 17.8479C1.06935 17.1904 1.06934 16.1243 1.72688 15.4668L10.8411 15.4694L10.9112 24.6511Z" fill="#F4E12F"/>
<path d="M3.08706 18.1881L2.06662 18.1882L1.72646 17.848C1.06893 17.1905 1.06893 16.1244 1.72646 15.4669L5.80835 15.4668L3.08706 18.1881Z" fill="#24B57E"/>
<path d="M8.18996 23.2909L8.18986 24.3113L8.53002 24.6515C9.18755 25.309 10.2536 25.309 10.9112 24.6515L10.9113 20.5696L8.18996 23.2909Z" fill="#24B57E"/>
</svg>
