<svg width="151" height="147" viewBox="0 0 151 147" fill="none" xmlns="http://www.w3.org/2000/svg">
<g opacity="0.419035">
<path d="M94.3585 4.39385C94.3585 6.8206 92.3736 8.78798 89.9253 8.78798C87.477 8.78798 85.4922 6.8206 85.4922 4.39385C85.4922 1.96723 87.477 0 89.9253 0C92.3736 0 94.3585 1.96723 94.3585 4.39385Z" fill="#3CA6FA"/>
</g>
<g opacity="0.796078">
<path d="M59.4441 15.3287L56.8114 16.8352C56.3347 17.108 55.7253 16.9461 55.4501 16.4737L50.6962 8.31243C50.421 7.84009 50.5844 7.23603 51.0609 6.96337L53.6938 5.45667C54.1703 5.184 54.7797 5.34582 55.055 5.81815L59.8088 13.9795C60.0841 14.452 59.9207 15.0559 59.4441 15.3287Z" fill="#3CA6FA"/>
</g>
<g opacity="0.796078">
<path d="M15.0339 32.3637L15.6261 32.5628C16.2975 32.7886 17.0381 32.6722 17.6065 32.2519L18.1077 31.8812C19.5388 30.8226 21.5735 31.8501 21.5507 33.6199L21.5427 34.2397C21.5336 34.9425 21.8739 35.6047 22.4528 36.0106L22.9635 36.3685C24.4215 37.3904 24.0642 39.6257 22.359 40.1512L21.7618 40.3352C21.0846 40.5438 20.5546 41.0694 20.3442 41.7405L20.1584 42.3325C19.6284 44.0226 17.3731 44.3766 16.342 42.9315L15.9807 42.4255C15.5713 41.8517 14.9032 41.5142 14.1942 41.5233L13.5688 41.5311C11.7833 41.5537 10.7467 39.5372 11.8147 38.1186L12.1888 37.6218C12.613 37.0586 12.7302 36.3245 12.5024 35.6589L12.3015 35.0719C11.7281 33.3957 13.3427 31.7954 15.0339 32.3637Z" fill="#3CA6FA"/>
</g>
<g opacity="0.796078">
<path d="M11.2466 63.5296L11.9116 66.4699C12.032 67.0021 11.6943 67.5305 11.1572 67.6497L1.87966 69.7111C1.34269 69.8303 0.809791 69.4955 0.689237 68.9633L0.0243071 66.0229C-0.0959554 65.4907 0.241739 64.9625 0.778708 64.8433L10.0564 62.7819C10.5933 62.6627 11.1262 62.9974 11.2466 63.5296Z" fill="#9DE000"/>
</g>
<g opacity="0.796078">
<path d="M20.6082 100.624C20.6082 103.051 18.6234 105.018 16.1752 105.018C13.7268 105.018 11.7422 103.051 11.7422 100.624C11.7422 98.1977 13.7268 96.2305 16.1752 96.2305C18.6234 96.2305 20.6082 98.1977 20.6082 100.624Z" fill="#F23D3D"/>
</g>
<g opacity="0.796078">
<path d="M15.0339 122.723L15.6261 122.922C16.2975 123.148 17.0381 123.032 17.6065 122.611L18.1077 122.24C19.5388 121.182 21.5735 122.21 21.5507 123.979L21.5427 124.599C21.5336 125.302 21.8739 125.964 22.4528 126.37L22.9635 126.728C24.4215 127.75 24.0642 129.985 22.359 130.511L21.7618 130.695C21.0846 130.903 20.5546 131.429 20.3442 132.1L20.1584 132.692C19.6284 134.382 17.3731 134.736 16.342 133.291L15.9807 132.785C15.5713 132.211 14.9032 131.874 14.1942 131.883L13.5688 131.891C11.7833 131.913 10.7467 129.897 11.8147 128.478L12.1888 127.981C12.613 127.418 12.7302 126.684 12.5024 126.018L12.3015 125.431C11.7281 123.755 13.3427 122.155 15.0339 122.723Z" fill="#FAEE3D"/>
</g>
<g opacity="0.796078">
<path d="M129.132 28.1704C127.789 26.435 128.205 23.8499 130.054 22.4436C131.903 21.0374 134.53 21.3082 135.873 23.0437C135.876 23.047 135.878 23.0503 135.881 23.0535" stroke="#F23D3D" stroke-width="1.98137" stroke-linecap="round" stroke-linejoin="round"/>
</g>
<g opacity="0.796078">
<path d="M140.862 52.2231L141.454 52.4222C142.126 52.6479 142.866 52.5316 143.435 52.1113L143.936 51.7406C145.367 50.682 147.402 51.7095 147.379 53.4793L147.371 54.0991C147.362 54.8019 147.702 55.4641 148.281 55.8699L148.792 56.2278C150.25 57.2498 149.893 59.4851 148.187 60.0106L147.59 60.1945C146.913 60.4031 146.383 60.9287 146.172 61.5999L145.986 62.1919C145.456 63.882 143.201 64.236 142.17 62.7909L141.809 62.2849C141.399 61.711 140.732 61.3736 140.022 61.3827L139.397 61.3906C137.612 61.413 136.575 59.3966 137.643 57.9781L138.017 57.4813C138.441 56.918 138.558 56.1839 138.33 55.5182L138.13 54.9313C137.556 53.255 139.171 51.6548 140.862 52.2231Z" fill="#FAEE3D"/>
</g>
<g opacity="0.796078">
<path d="M145.217 104.172C148.232 104.565 150.367 107.486 149.948 110.641C149.529 113.796 146.703 116.069 143.689 115.675C143.683 115.675 143.678 115.674 143.672 115.673" stroke="#F23D3D" stroke-width="1.48603" stroke-linecap="round" stroke-linejoin="round"/>
</g>
<g opacity="0.796078">
<path d="M135.718 141.235L133.085 142.742C132.608 143.014 131.999 142.852 131.724 142.38L126.97 134.219C126.694 133.746 126.858 133.142 127.334 132.87L129.967 131.363C130.444 131.09 131.053 131.252 131.328 131.724L136.082 139.886C136.357 140.358 136.194 140.962 135.718 141.235Z" fill="#3CA6FA"/>
</g>
<g opacity="0.796078">
<path d="M49.4302 146.002C47.5793 143.611 48.1523 140.049 50.6998 138.112C53.2472 136.175 56.8664 136.548 58.7173 138.939L58.7279 138.952" stroke="#3CA6FA" stroke-width="1.98137" stroke-linecap="round" stroke-linejoin="round"/>
</g>
<path d="M133.141 69.8283C133.141 98.8535 109.4 122.383 80.1137 122.383C50.8274 122.383 27.0859 98.8535 27.0859 69.8283C27.0859 40.8029 50.8274 17.2734 80.1137 17.2734C109.4 17.2734 133.141 40.8029 133.141 69.8283Z" fill="#9DE000"/>
<path d="M56.6641 69.9175L72.2097 85.3247L103.481 54.332" stroke="white" stroke-width="5.7388" stroke-linecap="round" stroke-linejoin="round"/>
</svg>
