<svg width="47" height="40" viewBox="0 0 47 40" fill="none" xmlns="http://www.w3.org/2000/svg">
<path d="M46.919 2.88977C46.9084 3.47679 46.8251 4.0603 46.671 4.62683C46.524 5.33483 46.3713 6.04176 46.2193 6.74976C46.066 7.47376 45.9127 8.19775 45.7593 8.92175C45.6127 9.62109 45.4643 10.3211 45.315 11.0217C45.2043 11.5504 45.0927 12.0794 44.98 12.6088C44.7927 13.4874 44.6051 14.3658 44.4171 15.2438C44.3031 15.7808 44.1961 16.3187 44.0821 16.8557C43.8951 17.7347 43.7042 18.6117 43.5172 19.4907C43.3678 20.1907 43.2203 20.8908 43.0743 21.5908C42.8176 22.8128 42.5609 24.0347 42.3043 25.2567C42.1043 26.2257 41.8892 27.1947 41.6842 28.1627C41.4221 29.4007 41.163 30.6398 40.9 31.8768C40.644 33.0828 40.3872 34.2878 40.1212 35.4918C40.0031 36.2667 39.8058 37.0272 39.5323 37.7617C39.421 38.0828 39.2307 38.3709 38.9796 38.5997C38.7284 38.8286 38.4243 38.9908 38.0943 39.0718C37.5807 39.1545 37.054 39.0817 36.5821 38.8628C35.9876 38.5778 35.432 38.2181 34.9283 37.7927C33.9943 37.1207 33.0769 36.4287 32.1519 35.7457C30.6853 34.6617 29.2187 33.5781 27.752 32.4948C27.052 31.9758 26.3402 31.4618 25.6422 30.9358C25.4792 30.8138 25.3823 30.8358 25.2423 30.9728C24.1956 31.9928 23.1454 33.0081 22.0914 34.0188C21.376 34.7075 20.6577 35.3941 19.9371 36.0787C19.5454 36.4479 19.0425 36.6771 18.5069 36.7307C18.2939 36.7567 18.1781 36.7117 18.2071 36.4547C18.2791 35.7007 18.3533 34.9457 18.3863 34.1887C18.4123 33.5547 18.4752 32.9248 18.5152 32.2888C18.5952 31.0258 18.7222 29.7647 18.7872 28.5007C18.8222 27.8267 18.9152 27.1557 18.9132 26.4797C18.9035 26.3279 18.9295 26.1759 18.9888 26.0358C19.0482 25.8957 19.1391 25.7714 19.255 25.6727C20.926 24.1867 22.574 22.6727 24.231 21.1727C25.251 20.2487 26.2723 19.3264 27.295 18.4058L32.5469 13.6577C33.5689 12.735 34.591 11.8131 35.6124 10.8917C36.5457 10.0491 37.4816 9.20706 38.421 8.36572C38.5352 8.25592 38.643 8.13938 38.7432 8.01672C38.7965 7.96861 38.8333 7.90529 38.8492 7.83533C38.8651 7.76536 38.8593 7.69215 38.8321 7.62573C38.7962 7.55918 38.7416 7.50469 38.6749 7.46912C38.6082 7.43354 38.5324 7.4185 38.4571 7.42578C38.0218 7.43603 37.5994 7.57526 37.2432 7.82581C36.1782 8.49081 35.1202 9.16682 34.0572 9.83582C31.7905 11.2645 29.5208 12.6921 27.2481 14.1188L16.939 20.6057C15.6924 21.391 14.446 22.1781 13.1993 22.9668C13.1454 23.0047 13.0829 23.0291 13.0176 23.038C12.9524 23.0468 12.8863 23.04 12.8243 23.0178C11.9023 22.7288 10.9792 22.4478 10.0572 22.1608C8.9372 21.8114 7.81765 21.4601 6.69831 21.1068C5.20331 20.6368 3.70733 20.1707 2.21833 19.6887C1.87739 19.5712 1.56296 19.387 1.29402 19.1467C1.17103 19.0445 1.07254 18.9163 1.00544 18.7711C0.938341 18.626 0.904499 18.4676 0.90632 18.3077C0.90814 18.1478 0.945796 17.9904 1.01618 17.8468C1.08657 17.7032 1.18778 17.5772 1.31306 17.4778C1.76415 17.0423 2.30466 16.7102 2.89704 16.5048C4.96971 15.6994 7.04357 14.8974 9.11823 14.0988C11.2342 13.2821 13.3493 12.4664 15.4639 11.6517C17.9306 10.7031 20.3977 9.75612 22.8643 8.81079C24.1083 8.33179 25.3493 7.84582 26.5933 7.36682C28.4733 6.64382 30.3574 5.92678 32.2374 5.20178C33.6644 4.65178 35.0863 4.09077 36.5123 3.54077C37.7673 3.05677 39.0282 2.58381 40.2842 2.10181C41.2762 1.72081 42.2629 1.32475 43.2569 0.947754C43.7904 0.694103 44.3676 0.544815 44.9571 0.507812C45.3982 0.51487 45.8239 0.672076 46.1636 0.953491C46.5034 1.23491 46.7372 1.6237 46.8262 2.05579C46.8927 2.32867 46.9238 2.60894 46.919 2.88977Z" fill="#F8F7F7"/>
</svg>
