<?xml version="1.0" encoding="UTF-8"?>
<svg version="1.1" xmlns="http://www.w3.org/2000/svg" width="200" height="200">
<path d="M0 0 C1.546875 1.1446875 1.546875 1.1446875 3.125 2.3125 C6.27189717 4.15959182 8.05851412 4.34897796 11.6328125 3.6953125 C16.59201349 2.2386495 21.29641636 0.12445194 26 -2 C25.51797078 2.68450935 24.44442494 5.26669007 21.4375 8.875 C20.79683594 9.65617187 20.15617188 10.43734375 19.49609375 11.2421875 C19.00238281 11.82226562 18.50867188 12.40234375 18 13 C19.43793392 12.68950274 20.8753318 12.3765224 22.3125 12.0625 C23.11300781 11.88847656 23.91351563 11.71445312 24.73828125 11.53515625 C27.145401 11.00113841 27.145401 11.00113841 30 10 C29.44775428 14.03420177 27.39561019 16.12391234 24.6875 19.0625 C23.51767578 20.34833984 23.51767578 20.34833984 22.32421875 21.66015625 C20 24 20 24 17.765625 25.203125 C14.70583471 28.31707087 15.25958023 32.4926121 15.0625 36.6875 C13.30251423 61.0336227 2.39890889 82.71651222 -16.09765625 98.72265625 C-35.08133634 113.61832986 -58.03475324 120.26900684 -82.04199219 117.7890625 C-95.6156983 116.12774659 -108.23417073 112.0020295 -120 105 C-120 104.34 -120 103.68 -120 103 C-118.80375 103.04125 -117.6075 103.0825 -116.375 103.125 C-102.86949961 103.06149451 -88.90387754 100.41156267 -78 92 C-78.75023437 91.81566406 -79.50046875 91.63132812 -80.2734375 91.44140625 C-89.32128524 88.87746955 -96.25209422 84.69953547 -101.5078125 76.70703125 C-102.8343947 74.16055004 -104 71.91652781 -104 69 C-100.7 69 -97.4 69 -94 69 C-95.175625 68.484375 -96.35125 67.96875 -97.5625 67.4375 C-105.35913419 63.51848387 -110.61356513 57.16495673 -113.75 49.0625 C-114.15698027 45.70491281 -114.05633473 42.38008394 -114 39 C-112.88625 39.2475 -112.88625 39.2475 -111.75 39.5 C-108.80993422 40.11925696 -108.80993422 40.11925696 -105 40 C-105.7425 39.21625 -106.485 38.4325 -107.25 37.625 C-113.0512551 30.5345771 -114.60712247 23.10823933 -114.33984375 14.07421875 C-113.88223965 9.93474258 -112.76827757 6.75758983 -111 3 C-107 3 -107 3 -105.5703125 4.3984375 C-104.85488281 5.37683594 -104.85488281 5.37683594 -104.125 6.375 C-90.20386931 23.10997626 -67.93373203 30.6353924 -47 33 C-47.10441406 31.69289063 -47.10441406 31.69289063 -47.2109375 30.359375 C-47.67572514 20.13404691 -45.80987941 12.79490918 -39.20703125 4.83984375 C-28.43426262 -5.62195837 -12.97571605 -6.93127278 0 0 Z " fill="#02A9F4" transform="translate(145,41)"/>
</svg>
