<svg width="43" height="37" viewBox="0 0 43 37" fill="none" xmlns="http://www.w3.org/2000/svg">
<path d="M20.891 11.2549C20.443 7.46089 21.249 4.34889 24.106 2.01989C25.5275 0.793855 27.3257 0.0910044 29.2019 0.0280645C31.0781 -0.0348754 32.9194 0.545875 34.42 1.67388C34.9839 2.19714 35.7007 2.52598 36.4651 2.61219C37.2296 2.69839 38.0016 2.53742 38.6679 2.15288C39.4389 1.79488 40.2399 1.49988 41.0269 1.17588L41.382 1.46888L38.037 5.72788L42.4749 4.76789C41.2929 5.99689 40.445 7.01289 39.4539 7.86289C39.1031 8.1387 38.8203 8.49142 38.6273 8.89383C38.4343 9.29625 38.3363 9.73762 38.3409 10.1839C37.8409 20.6039 33.4469 28.8049 23.9409 33.5369C16.3679 37.3079 8.63296 36.7499 1.14096 32.8819C1.07396 32.8469 1.06694 32.6969 0.960938 32.4029C5.24678 32.4124 9.40712 30.9566 12.752 28.2769C8.90295 27.5959 6.01794 25.9909 4.69394 22.2769L7.93594 21.9769C4.08894 20.1659 1.69894 17.5409 1.33594 13.1439L4.83594 13.9219C1.56094 10.3959 0.386938 6.64287 2.46094 1.91487C7.37894 7.48187 13.277 10.8289 20.891 11.2549Z" fill="#F8F7F7"/>
</svg>
